<?xml version="1.0" standalone="no"?>
<!DOCTYPE svg PUBLIC "-//W3C//DTD SVG 1.1//EN" "http://www.w3.org/Graphics/SVG/1.1/DTD/svg11.dtd" >
<svg xmlns="http://www.w3.org/2000/svg">
<metadata>Generated by IcoMoon</metadata>
<defs>
<font id="icomoon" horiz-adv-x="1024">
<font-face units-per-em="1024" ascent="960" descent="-64" />
<missing-glyph horiz-adv-x="1024" />
<glyph unicode="&#x20;" horiz-adv-x="512" d="" />
<glyph unicode="&#xe900;" glyph-name="activity-icon" horiz-adv-x="956" d="M344.747-43.52c-6.827 0-10.24 0-17.067 3.413-13.653 10.24-20.48 23.893-17.067 40.96l88.747 344.747h-273.067c-13.653 0-27.307 6.827-30.72 20.48-6.827 13.653-3.413 27.307 6.827 37.547l443.733 498.347c10.24 10.24 27.307 13.653 40.96 6.827s20.48-23.893 17.067-37.547l-75.093-286.72h314.027c13.653 0 27.307-6.827 30.72-20.48 6.827-13.653 3.413-27.307-6.827-37.547l-494.933-556.373c-6.827-10.24-17.067-13.653-27.307-13.653zM201.387 413.867h242.347c10.24 0 20.48-3.413 27.307-13.653s10.24-20.48 6.827-30.72l-64.853-252.587 351.573 399.36h-283.307c-10.24 0-20.48 3.413-27.307 13.653s-10.24 20.48-6.827 30.72l51.2 191.147-296.96-337.92z" />
<glyph unicode="&#xe901;" glyph-name="app-footer" horiz-adv-x="3072" d="M2832.384 833.024c43.008 0 77.824-34.816 77.824-75.776v-624.64c0-40.96-34.816-75.776-77.824-75.776h-2570.24c-43.008 0-75.776 34.816-75.776 75.776v624.64c0 43.008 34.816 75.776 75.776 75.776h2570.24zM2832.384 853.504h-2570.24c-53.248 0-96.256-43.008-96.256-96.256v-624.64c0-53.248 43.008-96.256 96.256-96.256h2570.24c53.248 0 98.304 43.008 98.304 96.256v624.64c0 53.248-45.056 96.256-98.304 96.256v0zM782.336 448c0 65.536 53.248 98.304 57.344 100.352-30.72 45.056-79.872 51.2-96.256 51.2-40.96 4.096-79.872-24.576-100.352-24.576s-53.248 24.576-86.016 22.528c-43.008 0-83.968-26.624-106.496-65.536-47.104-79.872-12.288-198.656 32.768-264.192 22.528-32.768 49.152-67.584 81.92-65.536s45.056 20.48 86.016 20.48c38.912 0 51.2-20.48 86.016-20.48s57.344 32.768 79.872 63.488c26.624 36.864 36.864 71.68 36.864 73.728-2.048 4.096-69.632 28.672-71.68 108.544zM716.8 642.56c18.432 22.528 30.72 53.248 26.624 83.968-26.624-2.048-57.344-18.432-77.824-38.912-16.384-18.432-30.72-51.2-26.624-79.872 30.72-4.096 59.392 12.288 77.824 34.816zM1263.616 208.384h-47.104l-24.576 79.872h-88.064l-24.576-79.872h-45.056l88.064 272.384h53.248l88.064-272.384zM1185.792 321.024l-22.528 71.68c-2.048 8.192-6.144 24.576-14.336 51.2v0c-2.048-12.288-6.144-28.672-12.288-51.2l-22.528-71.68h71.68zM1490.944 308.736c0-32.768-8.192-59.392-26.624-79.872-16.384-16.384-36.864-26.624-59.392-26.624-26.624 0-45.056 10.24-55.296 28.672v0-104.448h-43.008v212.992c0 20.48 0 43.008-2.048 65.536h38.912l2.048-30.72c14.336 22.528 36.864 34.816 65.536 34.816 22.528 0 43.008-8.192 57.344-26.624 14.336-20.48 22.528-43.008 22.528-73.728zM1445.888 306.688c0 18.432-4.096 34.816-12.288 47.104-10.24 12.288-22.528 18.432-38.912 18.432-10.24 0-20.48-4.096-28.672-10.24s-14.336-16.384-16.384-28.672c-2.048-6.144-2.048-10.24-2.048-12.288v-32.768c0-14.336 4.096-26.624 12.288-36.864s20.48-14.336 34.816-14.336c16.384 0 28.672 6.144 38.912 18.432 8.192 14.336 12.288 30.72 12.288 51.2zM1716.224 308.736c0-32.768-8.192-59.392-26.624-79.872-16.384-16.384-36.864-26.624-59.392-26.624-26.624 0-45.056 10.24-55.296 28.672v0-104.448h-43.008v212.992c0 20.48 0 43.008-2.048 65.536h38.912l2.048-30.72c14.336 22.528 36.864 34.816 65.536 34.816 22.528 0 43.008-8.192 57.344-26.624 14.336-20.48 22.528-43.008 22.528-73.728zM1671.168 306.688c0 18.432-4.096 34.816-12.288 47.104-10.24 12.288-22.528 18.432-38.912 18.432-10.24 0-20.48-4.096-28.672-10.24s-14.336-16.384-16.384-28.672c-2.048-6.144-2.048-10.24-2.048-12.288v-32.768c0-14.336 4.096-26.624 12.288-36.864s20.48-14.336 34.816-14.336c16.384 0 28.672 6.144 38.912 18.432 8.192 14.336 12.288 30.72 12.288 51.2zM1968.128 284.16c0-22.528-8.192-43.008-24.576-57.344-18.432-16.384-43.008-24.576-73.728-24.576-28.672 0-53.248 6.144-69.632 16.384l10.24 36.864c18.432-12.288 40.96-16.384 63.488-16.384 16.384 0 28.672 4.096 38.912 10.24 8.192 8.192 14.336 16.384 14.336 30.72 0 10.24-4.096 20.48-12.288 28.672s-20.48 14.336-36.864 20.48c-47.104 18.432-71.68 43.008-71.68 77.824 0 22.528 8.192 40.96 24.576 55.296s38.912 20.48 67.584 20.48c24.576 0 45.056-4.096 61.44-12.288l-10.24-34.816c-16.384 8.192-32.768 12.288-51.2 12.288-16.384 0-26.624-4.096-36.864-12.288-8.192-6.144-10.24-14.336-10.24-24.576s4.096-20.48 12.288-26.624c8.192-6.144 20.48-14.336 38.912-20.48 22.528-10.24 40.96-20.48 51.2-32.768s14.336-28.672 14.336-47.104zM2113.536 372.224h-47.104v-96.256c0-24.576 8.192-36.864 24.576-36.864 8.192 0 14.336 0 18.432 2.048l2.048-32.768c-8.192-4.096-20.48-4.096-34.816-4.096-16.384 0-30.72 6.144-40.96 16.384s-14.336 28.672-14.336 53.248v98.304h-28.672v32.768h28.672v36.864l43.008 12.288v-49.152h47.104v-32.768zM2330.624 308.736c0-30.72-8.192-55.296-26.624-73.728-18.432-20.48-43.008-30.72-71.68-30.72s-51.2 10.24-69.632 28.672c-16.384 18.432-26.624 43.008-26.624 71.68 0 30.72 8.192 55.296 26.624 75.776 18.432 18.432 40.96 28.672 71.68 28.672 28.672 0 51.2-10.24 69.632-28.672s26.624-43.008 26.624-71.68zM2285.568 306.688c0 18.432-4.096 32.768-12.288 47.104-8.192 16.384-22.528 22.528-38.912 22.528-18.432 0-30.72-8.192-40.96-22.528-8.192-12.288-12.288-28.672-12.288-47.104s4.096-32.768 12.288-47.104c10.24-16.384 22.528-22.528 38.912-22.528s30.72 8.192 38.912 24.576c10.24 10.24 14.336 26.624 14.336 45.056zM2471.936 366.080c-4.096 0-8.192 2.048-14.336 2.048-16.384 0-26.624-6.144-34.816-18.432-8.192-10.24-10.24-22.528-10.24-38.912v-102.4h-43.008v135.168c0 22.528 0 43.008-2.048 61.44h38.912l2.048-36.864h2.048c4.096 12.288 12.288 22.528 22.528 30.72 10.24 6.144 20.48 10.24 30.72 10.24 4.096 0 8.192 0 10.24 0l-2.048-43.008zM2668.544 314.88c0-8.192 0-14.336-2.048-20.48h-131.072c0-18.432 6.144-34.816 18.432-45.056 10.24-8.192 24.576-14.336 43.008-14.336s36.864 4.096 53.248 10.24l6.144-30.72c-18.432-8.192-40.96-12.288-65.536-12.288-30.72 0-55.296 8.192-71.68 26.624s-26.624 40.96-26.624 71.68c0 28.672 8.192 55.296 24.576 73.728 16.384 20.48 38.912 30.72 69.632 30.72 28.672 0 49.152-10.24 63.488-30.72 12.288-14.336 18.432-34.816 18.432-59.392zM2625.536 327.168c0 12.288-2.048 24.576-8.192 32.768-8.192 12.288-18.432 18.432-34.816 18.432-14.336 0-26.624-6.144-34.816-18.432-8.192-10.24-12.288-20.48-12.288-34.816l90.112 2.048zM1169.408 648.704c0-24.576-8.192-43.008-22.528-55.296-14.336-10.24-32.768-16.384-57.344-16.384-12.288 0-22.528 0-30.72 2.048v131.072c12.288 2.048 24.576 2.048 36.864 2.048 22.528 0 40.96-4.096 53.248-14.336 14.336-12.288 20.48-28.672 20.48-49.152zM1146.88 648.704c0 16.384-4.096 26.624-12.288 36.864-8.192 8.192-20.48 12.288-36.864 12.288-6.144 0-12.288 0-16.384-2.048v-100.352c2.048 0 8.192 0 14.336 0 16.384 0 28.672 4.096 38.912 14.336s12.288 20.48 12.288 38.912zM1290.24 628.224c0-14.336-4.096-26.624-12.288-36.864s-20.48-14.336-34.816-14.336c-14.336 0-24.576 4.096-34.816 14.336-8.192 10.24-12.288 20.48-12.288 34.816s4.096 26.624 12.288 36.864 20.48 14.336 34.816 14.336c14.336 0 24.576-4.096 34.816-14.336 8.192-10.24 12.288-20.48 12.288-34.816zM1267.712 626.176c0 8.192-2.048 16.384-6.144 22.528-4.096 8.192-10.24 12.288-18.432 12.288s-14.336-4.096-20.48-12.288c-4.096-6.144-6.144-14.336-6.144-22.528s2.048-16.384 6.144-22.528c4.096-8.192 10.24-12.288 20.48-12.288 8.192 0 14.336 4.096 18.432 12.288 4.096 6.144 6.144 14.336 6.144 22.528zM1452.032 675.328l-30.72-96.256h-20.48l-12.288 40.96c-4.096 10.24-6.144 20.48-8.192 30.72v0c-2.048-10.24-4.096-20.48-8.192-30.72l-12.288-40.96h-20.48l-28.672 96.256h22.528l10.24-45.056c2.048-10.24 4.096-20.48 6.144-30.72v0c2.048 8.192 4.096 18.432 8.192 30.72l14.336 47.104h18.432l12.288-45.056c4.096-10.24 6.144-22.528 8.192-32.768v0c2.048 10.24 4.096 20.48 6.144 32.768l12.288 45.056 22.528-2.048zM1562.624 579.072h-20.48v55.296c0 16.384-6.144 24.576-18.432 24.576-6.144 0-12.288-2.048-16.384-6.144s-6.144-10.24-6.144-16.384v-57.344h-20.48v69.632c0 8.192 0 18.432 0 26.624h18.432v-14.336c2.048 4.096 6.144 8.192 10.24 12.288 6.144 4.096 12.288 6.144 18.432 6.144 8.192 0 16.384-2.048 22.528-8.192 8.192-6.144 10.24-18.432 10.24-32.768v-59.392zM1622.016 579.072h-20.48v141.312h20.48v-141.312zM1748.992 628.224c0-14.336-4.096-26.624-12.288-36.864s-20.48-14.336-34.816-14.336c-14.336 0-24.576 4.096-34.816 14.336-8.192 10.24-12.288 20.48-12.288 34.816s4.096 26.624 12.288 36.864c8.192 10.24 20.48 14.336 34.816 14.336s24.576-4.096 34.816-14.336c8.192-10.24 12.288-20.48 12.288-34.816zM1726.464 626.176c0 8.192-2.048 16.384-6.144 22.528-4.096 8.192-10.24 12.288-18.432 12.288s-14.336-4.096-20.48-12.288c-4.096-6.144-6.144-14.336-6.144-22.528s2.048-16.384 6.144-22.528c4.096-8.192 10.24-12.288 20.48-12.288 8.192 0 14.336 4.096 18.432 12.288 4.096 6.144 6.144 14.336 6.144 22.528zM1851.392 579.072h-18.432l-2.048 10.24c-6.144-8.192-16.384-12.288-28.672-12.288-8.192 0-16.384 2.048-22.528 8.192-4.096 6.144-8.192 12.288-8.192 20.48 0 12.288 4.096 20.48 14.336 26.624s24.576 10.24 40.96 8.192v2.048c0 12.288-6.144 18.432-20.48 18.432-10.24 0-18.432-2.048-24.576-6.144l-4.096 14.336c8.192 6.144 20.48 8.192 32.768 8.192 24.576 0 36.864-12.288 36.864-38.912v-34.816c4.096-12.288 4.096-20.48 4.096-24.576zM1828.864 611.84v14.336c-24.576 0-34.816-6.144-34.816-20.48 0-4.096 2.048-8.192 4.096-12.288 2.048-2.048 6.144-4.096 10.24-4.096s8.192 2.048 12.288 4.096c4.096 2.048 6.144 6.144 8.192 12.288 0 2.048 0 4.096 0 6.144zM1974.272 579.072h-18.432v16.384c-6.144-12.288-16.384-18.432-30.72-18.432-12.288 0-20.48 4.096-28.672 14.336-8.192 8.192-12.288 20.48-12.288 34.816 0 16.384 4.096 28.672 12.288 38.912 8.192 8.192 18.432 14.336 30.72 14.336s22.528-4.096 26.624-12.288v0 55.296h20.48v-114.688c-2.048-12.288 0-22.528 0-28.672zM1951.744 617.984v16.384c0 2.048 0 4.096 0 6.144-2.048 6.144-4.096 10.24-8.192 12.288-4.096 4.096-8.192 6.144-14.336 6.144-8.192 0-14.336-4.096-18.432-10.24s-6.144-14.336-6.144-24.576c0-10.24 2.048-16.384 6.144-22.528s10.24-10.24 18.432-10.24c6.144 0 12.288 2.048 16.384 8.192s6.144 12.288 6.144 18.432zM2156.544 628.224c0-14.336-4.096-26.624-12.288-36.864s-20.48-14.336-34.816-14.336c-14.336 0-24.576 4.096-34.816 14.336-8.192 10.24-12.288 20.48-12.288 34.816s4.096 26.624 12.288 36.864c8.192 10.24 20.48 14.336 34.816 14.336s24.576-4.096 34.816-14.336c8.192-10.24 12.288-20.48 12.288-34.816zM2136.064 626.176c0 8.192-2.048 16.384-6.144 22.528-4.096 8.192-10.24 12.288-18.432 12.288s-14.336-4.096-20.48-12.288c-4.096-6.144-6.144-14.336-6.144-22.528s2.048-16.384 6.144-22.528c4.096-8.192 10.24-12.288 20.48-12.288 8.192 0 14.336 4.096 18.432 12.288 4.096 6.144 6.144 14.336 6.144 22.528zM2273.28 579.072h-20.48v55.296c0 16.384-6.144 24.576-20.48 24.576-6.144 0-12.288-2.048-16.384-6.144s-6.144-10.24-6.144-16.384v-57.344h-20.48v69.632c0 8.192 0 18.432 0 26.624h18.432v-14.336c2.048 4.096 6.144 8.192 10.24 12.288 6.144 4.096 12.288 6.144 20.48 6.144s16.384-2.048 22.528-8.192c8.192-6.144 10.24-18.432 10.24-32.768v-59.392zM2416.64 658.944h-24.576v-47.104c0-12.288 4.096-18.432 12.288-18.432 4.096 0 6.144 0 10.24 0v-16.384c-4.096-2.048-10.24-2.048-16.384-2.048-8.192 0-14.336 2.048-20.48 8.192-4.096 6.144-8.192 14.336-8.192 26.624v49.152h-14.336v16.384h14.336v18.432l20.48 6.144v-24.576h24.576l2.048-16.384zM2531.328 579.072h-20.48v53.248c0 16.384-6.144 26.624-18.432 26.624-10.24 0-16.384-4.096-20.48-14.336 0-2.048 0-4.096 0-8.192v-57.344h-20.48v141.312h20.48v-57.344c6.144 10.24 16.384 16.384 28.672 16.384 8.192 0 16.384-2.048 22.528-8.192 8.192-8.192 10.24-18.432 10.24-32.768v-59.392zM2648.064 630.272c0-4.096 0-6.144 0-10.24h-63.488c0-10.24 4.096-16.384 10.24-22.528 6.144-4.096 12.288-6.144 20.48-6.144 10.24 0 18.432 2.048 26.624 4.096l4.096-14.336c-8.192-4.096-20.48-6.144-32.768-6.144-14.336 0-26.624 4.096-34.816 12.288s-12.288 20.48-12.288 34.816c0 14.336 4.096 26.624 12.288 36.864s20.48 16.384 32.768 16.384c14.336 0 24.576-6.144 30.72-16.384 4.096-6.144 6.144-16.384 6.144-28.672zM2627.584 636.416c0 6.144-2.048 12.288-4.096 16.384-4.096 6.144-10.24 8.192-16.384 8.192s-12.288-2.048-16.384-8.192c-4.096-4.096-6.144-10.24-6.144-16.384h43.008z" />
<glyph unicode="&#xe902;" horiz-adv-x="3072" d="M2816 34.304h-2568.192c-53.248 0-96.256 43.008-96.256 96.256v626.688c0 53.248 43.008 96.256 96.256 96.256h2570.24c53.248 0 98.304-43.008 98.304-96.256v-624.64c-2.048-55.296-47.104-98.304-100.352-98.304v0z" />
<glyph unicode="&#xe903;" horiz-adv-x="3072" d="M2816 833.024c43.008 0 77.824-34.816 77.824-75.776v-624.64c0-40.96-34.816-75.776-77.824-75.776h-2568.192c-43.008 0-75.776 34.816-75.776 75.776v624.64c0 43.008 34.816 75.776 75.776 75.776h2568.192zM2816 853.504h-2568.192c-53.248 0-96.256-43.008-96.256-96.256v-624.64c0-53.248 43.008-96.256 96.256-96.256h2570.24c53.248 0 98.304 43.008 98.304 96.256v624.64c-2.048 53.248-47.104 96.256-100.352 96.256v0z" />
<glyph unicode="&#xe904;" horiz-adv-x="3072" d="M768 448c0 65.536 53.248 98.304 57.344 100.352-30.72 45.056-79.872 51.2-96.256 51.2-40.96 4.096-79.872-24.576-100.352-24.576s-53.248 24.576-86.016 22.528c-43.008 0-83.968-26.624-106.496-65.536-47.104-79.872-12.288-198.656 32.768-264.192 22.528-32.768 49.152-67.584 81.92-65.536s45.056 20.48 86.016 20.48c38.912 0 51.2-20.48 86.016-20.48s57.344 32.768 79.872 63.488c26.624 36.864 36.864 71.68 36.864 73.728-4.096 4.096-71.68 28.672-71.68 108.544z" />
<glyph unicode="&#xe905;" horiz-adv-x="3072" d="M702.464 642.56c18.432 22.528 30.72 53.248 26.624 83.968-26.624-2.048-57.344-18.432-77.824-38.912-16.384-18.432-30.72-51.2-26.624-79.872 28.672-4.096 57.344 12.288 77.824 34.816z" />
<glyph unicode="&#xe906;" horiz-adv-x="3072" d="M1249.28 208.384h-47.104l-24.576 79.872h-88.064l-24.576-79.872h-45.056l86.016 272.384h53.248l90.112-272.384zM1169.408 321.024l-22.528 71.68c-2.048 8.192-6.144 24.576-14.336 51.2v0c-2.048-12.288-6.144-28.672-12.288-51.2l-22.528-71.68h71.68z" />
<glyph unicode="&#xe907;" horiz-adv-x="3072" d="M1474.56 308.736c0-32.768-8.192-59.392-26.624-79.872-16.384-16.384-36.864-26.624-59.392-26.624-26.624 0-45.056 10.24-55.296 28.672v0-104.448h-43.008v212.992c0 20.48 0 43.008-2.048 65.536h38.912l2.048-30.72c14.336 22.528 36.864 34.816 65.536 34.816 22.528 0 43.008-8.192 57.344-26.624 14.336-20.48 22.528-43.008 22.528-73.728zM1429.504 306.688c0 18.432-4.096 34.816-12.288 47.104-10.24 12.288-22.528 18.432-38.912 18.432-10.24 0-20.48-4.096-28.672-10.24s-14.336-16.384-16.384-28.672c-2.048-4.096-2.048-8.192-2.048-12.288v-32.768c0-14.336 4.096-26.624 12.288-36.864s20.48-14.336 34.816-14.336c16.384 0 28.672 6.144 38.912 18.432 8.192 14.336 12.288 30.72 12.288 51.2z" />
<glyph unicode="&#xe908;" horiz-adv-x="3072" d="M1699.84 308.736c0-32.768-8.192-59.392-26.624-79.872-16.384-16.384-36.864-26.624-59.392-26.624-26.624 0-45.056 10.24-55.296 28.672v0-104.448h-43.008v212.992c0 20.48 0 43.008-2.048 65.536h38.912l2.048-30.72c14.336 22.528 36.864 34.816 65.536 34.816 22.528 0 43.008-8.192 57.344-26.624 16.384-20.48 22.528-43.008 22.528-73.728zM1656.832 306.688c0 18.432-4.096 34.816-12.288 47.104-10.24 12.288-22.528 18.432-38.912 18.432-10.24 0-20.48-4.096-28.672-10.24s-14.336-16.384-16.384-28.672c-4.096-4.096-4.096-8.192-4.096-12.288v-32.768c0-14.336 4.096-26.624 12.288-36.864s20.48-14.336 34.816-14.336c16.384 0 28.672 6.144 38.912 18.432 8.192 14.336 14.336 30.72 14.336 51.2z" />
<glyph unicode="&#xe909;" horiz-adv-x="3072" d="M1953.792 284.16c0-22.528-8.192-43.008-24.576-57.344-18.432-16.384-43.008-24.576-73.728-24.576-28.672 0-53.248 6.144-69.632 16.384l10.24 36.864c18.432-12.288 40.96-16.384 63.488-16.384 16.384 0 28.672 4.096 38.912 10.24 8.192 8.192 14.336 16.384 14.336 30.72 0 10.24-4.096 20.48-12.288 28.672s-20.48 14.336-36.864 20.48c-47.104 18.432-71.68 43.008-71.68 77.824 0 22.528 8.192 40.96 24.576 55.296s38.912 20.48 67.584 20.48c24.576 0 45.056-4.096 61.44-12.288l-10.24-34.816c-16.384 8.192-32.768 12.288-51.2 12.288-16.384 0-26.624-4.096-36.864-12.288-8.192-6.144-10.24-14.336-10.24-24.576s4.096-20.48 12.288-26.624c8.192-6.144 20.48-14.336 38.912-20.48 22.528-10.24 40.96-20.48 51.2-32.768 8.192-12.288 14.336-28.672 14.336-47.104z" />
<glyph unicode="&#xe90a;" horiz-adv-x="3072" d="M2097.152 372.224h-49.152v-96.256c0-24.576 8.192-36.864 24.576-36.864 8.192 0 14.336 0 18.432 2.048l2.048-32.768c-8.192-4.096-20.48-4.096-34.816-4.096-16.384 0-30.72 6.144-40.96 16.384s-14.336 28.672-14.336 53.248v98.304h-28.672v32.768h32.768v36.864l43.008 12.288v-49.152h49.152v-32.768z" />
<glyph unicode="&#xe90b;" horiz-adv-x="3072" d="M2314.24 308.736c0-30.72-8.192-55.296-26.624-73.728-18.432-20.48-43.008-30.72-71.68-30.72s-51.2 10.24-69.632 28.672c-16.384 18.432-26.624 43.008-26.624 71.68 0 30.72 8.192 55.296 26.624 75.776 18.432 18.432 40.96 28.672 71.68 28.672 28.672 0 51.2-10.24 69.632-28.672s26.624-43.008 26.624-71.68zM2269.184 306.688c0 18.432-4.096 32.768-12.288 47.104-8.192 16.384-22.528 22.528-38.912 22.528-18.432 0-30.72-8.192-40.96-22.528-8.192-12.288-12.288-28.672-12.288-47.104s4.096-32.768 12.288-47.104c10.24-16.384 22.528-22.528 38.912-22.528s30.72 8.192 38.912 24.576c10.24 10.24 14.336 26.624 14.336 45.056z" />
<glyph unicode="&#xe90c;" horiz-adv-x="3072" d="M2457.6 366.080c-4.096 0-8.192 2.048-14.336 2.048-16.384 0-26.624-6.144-34.816-18.432-8.192-10.24-10.24-22.528-10.24-38.912v-102.4h-43.008v135.168c0 22.528 0 43.008-2.048 61.44h38.912l2.048-36.864h2.048c4.096 12.288 12.288 22.528 22.528 30.72 10.24 6.144 20.48 10.24 30.72 10.24 4.096 0 8.192 0 10.24 0v-43.008z" />
<glyph unicode="&#xe90d;" horiz-adv-x="3072" d="M2652.16 314.88c0-8.192 0-14.336-2.048-20.48h-131.072c0-18.432 6.144-34.816 18.432-45.056 10.24-8.192 24.576-14.336 43.008-14.336s36.864 4.096 53.248 10.24l6.144-30.72c-18.432-8.192-40.96-12.288-65.536-12.288-30.72 0-55.296 8.192-71.68 26.624s-26.624 40.96-26.624 71.68c0 28.672 8.192 55.296 24.576 73.728 16.384 20.48 38.912 30.72 69.632 30.72 28.672 0 49.152-10.24 63.488-30.72 12.288-14.336 18.432-34.816 18.432-59.392zM2611.2 327.168c0 12.288-2.048 24.576-8.192 32.768-8.192 12.288-18.432 18.432-34.816 18.432-14.336 0-26.624-6.144-34.816-18.432-8.192-10.24-12.288-20.48-12.288-34.816l90.112 2.048z" />
<glyph unicode="&#xe90e;" horiz-adv-x="3072" d="M1155.072 648.704c0-24.576-8.192-43.008-22.528-55.296-14.336-10.24-32.768-16.384-57.344-16.384-12.288 0-22.528 0-30.72 2.048v131.072c12.288 2.048 24.576 2.048 36.864 2.048 22.528 0 40.96-4.096 53.248-14.336 14.336-12.288 20.48-28.672 20.48-49.152zM1132.544 648.704c0 16.384-4.096 26.624-12.288 36.864-8.192 8.192-20.48 12.288-36.864 12.288-6.144 0-12.288 0-16.384-2.048v-100.352c2.048 0 8.192 0 14.336 0 16.384 0 28.672 4.096 38.912 14.336 8.192 6.144 12.288 20.48 12.288 38.912z" />
<glyph unicode="&#xe90f;" horiz-adv-x="3072" d="M1273.856 628.224c0-14.336-4.096-26.624-12.288-36.864s-20.48-14.336-34.816-14.336c-14.336 0-24.576 4.096-34.816 14.336-8.192 10.24-12.288 20.48-12.288 34.816s4.096 26.624 12.288 36.864 20.48 14.336 34.816 14.336c14.336 0 24.576-4.096 34.816-14.336 8.192-10.24 12.288-20.48 12.288-34.816zM1253.376 626.176c0 8.192-2.048 16.384-6.144 22.528-4.096 8.192-10.24 12.288-18.432 12.288s-14.336-4.096-20.48-12.288c-4.096-6.144-6.144-14.336-6.144-22.528s2.048-16.384 6.144-22.528c4.096-8.192 10.24-12.288 20.48-12.288 8.192 0 14.336 4.096 18.432 12.288 4.096 6.144 6.144 14.336 6.144 22.528z" />
<glyph unicode="&#xe910;" horiz-adv-x="3072" d="M1435.648 675.328l-30.72-96.256h-20.48l-12.288 40.96c-4.096 10.24-6.144 20.48-8.192 30.72v0c-2.048-10.24-4.096-20.48-8.192-30.72l-12.288-40.96h-20.48l-28.672 96.256h22.528l10.24-45.056c2.048-10.24 4.096-20.48 6.144-30.72v0c2.048 8.192 4.096 18.432 8.192 30.72l14.336 47.104h18.432l12.288-45.056c4.096-10.24 6.144-22.528 8.192-32.768v0c2.048 10.24 4.096 20.48 6.144 32.768l12.288 45.056 22.528-2.048z" />
<glyph unicode="&#xe911;" horiz-adv-x="3072" d="M1546.24 579.072h-20.48v55.296c0 16.384-6.144 24.576-18.432 24.576-6.144 0-12.288-2.048-16.384-6.144s-6.144-10.24-6.144-16.384v-57.344h-20.48v69.632c0 8.192 0 18.432 0 26.624h18.432v-14.336c2.048 4.096 6.144 8.192 10.24 12.288 6.144 4.096 12.288 6.144 20.48 6.144s16.384-2.048 22.528-8.192c8.192-6.144 10.24-18.432 10.24-32.768v-59.392z" />
<glyph unicode="&#xe912;" horiz-adv-x="3072" d="M1605.632 579.072h-20.48v141.312h20.48v-141.312z" />
<glyph unicode="&#xe913;" horiz-adv-x="3072" d="M1732.608 628.224c0-14.336-4.096-26.624-12.288-36.864s-20.48-14.336-34.816-14.336c-14.336 0-24.576 4.096-34.816 14.336-8.192 10.24-12.288 20.48-12.288 34.816s4.096 26.624 12.288 36.864c8.192 10.24 20.48 14.336 34.816 14.336s24.576-4.096 34.816-14.336c8.192-10.24 12.288-20.48 12.288-34.816zM1710.080 626.176c0 8.192-2.048 16.384-6.144 22.528-4.096 8.192-10.24 12.288-18.432 12.288s-14.336-4.096-20.48-12.288c-4.096-6.144-6.144-14.336-6.144-22.528s2.048-16.384 6.144-22.528c4.096-8.192 10.24-12.288 20.48-12.288 8.192 0 14.336 4.096 18.432 12.288 4.096 6.144 6.144 14.336 6.144 22.528z" />
<glyph unicode="&#xe914;" horiz-adv-x="3072" d="M1837.056 579.072h-18.432l-2.048 10.24c-6.144-8.192-16.384-12.288-28.672-12.288-8.192 0-16.384 2.048-22.528 8.192-4.096 6.144-8.192 12.288-8.192 20.48 0 12.288 4.096 20.48 14.336 26.624s24.576 10.24 40.96 8.192v2.048c0 12.288-6.144 18.432-20.48 18.432-10.24 0-18.432-2.048-24.576-6.144l-4.096 14.336c8.192 6.144 20.48 8.192 32.768 8.192 24.576 0 36.864-12.288 36.864-38.912v-34.816c2.048-12.288 2.048-20.48 4.096-24.576zM1814.528 611.84v14.336c-24.576 0-34.816-6.144-34.816-20.48 0-4.096 2.048-8.192 4.096-12.288 2.048-2.048 6.144-4.096 10.24-4.096s8.192 2.048 12.288 4.096c4.096 2.048 6.144 6.144 8.192 12.288 0 2.048 0 4.096 0 6.144z" />
<glyph unicode="&#xe915;" horiz-adv-x="3072" d="M1957.888 579.072h-18.432v16.384c-6.144-12.288-16.384-18.432-30.72-18.432-12.288 0-20.48 4.096-28.672 14.336-8.192 8.192-12.288 20.48-12.288 34.816 0 16.384 4.096 28.672 12.288 38.912 8.192 8.192 18.432 14.336 30.72 14.336s22.528-4.096 26.624-12.288v0 55.296h20.48v-114.688c0-12.288 0-22.528 0-28.672zM1935.36 617.984v16.384c0 2.048 0 4.096 0 6.144-2.048 6.144-4.096 10.24-8.192 12.288-4.096 4.096-8.192 6.144-14.336 6.144-8.192 0-14.336-4.096-18.432-10.24s-6.144-14.336-6.144-24.576c0-10.24 2.048-16.384 6.144-22.528s10.24-10.24 18.432-10.24c6.144 0 12.288 2.048 16.384 8.192s6.144 12.288 6.144 18.432z" />
<glyph unicode="&#xe916;" horiz-adv-x="3072" d="M2142.208 628.224c0-14.336-4.096-26.624-12.288-36.864s-20.48-14.336-34.816-14.336c-14.336 0-24.576 4.096-34.816 14.336-8.192 10.24-12.288 20.48-12.288 34.816s4.096 26.624 12.288 36.864c8.192 10.24 20.48 14.336 34.816 14.336s24.576-4.096 34.816-14.336c8.192-10.24 12.288-20.48 12.288-34.816zM2119.68 626.176c0 8.192-2.048 16.384-6.144 22.528-4.096 8.192-10.24 12.288-18.432 12.288s-14.336-4.096-20.48-12.288c-4.096-6.144-6.144-14.336-6.144-22.528s2.048-16.384 6.144-22.528c4.096-8.192 10.24-12.288 20.48-12.288 8.192 0 14.336 4.096 18.432 12.288 4.096 6.144 6.144 14.336 6.144 22.528z" />
<glyph unicode="&#xe917;" horiz-adv-x="3072" d="M2256.896 579.072h-20.48v55.296c0 16.384-6.144 24.576-20.48 24.576-6.144 0-12.288-2.048-16.384-6.144s-6.144-10.24-6.144-16.384v-57.344h-20.48v69.632c0 8.192 0 18.432 0 26.624h18.432v-14.336c2.048 4.096 6.144 8.192 10.24 12.288 6.144 4.096 12.288 6.144 20.48 6.144s16.384-2.048 22.528-8.192c8.192-6.144 10.24-18.432 10.24-32.768v-59.392z" />
<glyph unicode="&#xe918;" horiz-adv-x="3072" d="M2402.304 658.944h-24.576v-47.104c0-12.288 4.096-18.432 12.288-18.432 4.096 0 6.144 0 10.24 0v-16.384c-4.096-2.048-10.24-2.048-16.384-2.048-8.192 0-14.336 2.048-20.48 8.192-4.096 6.144-6.144 14.336-6.144 26.624v49.152h-14.336v16.384h14.336v18.432l20.48 6.144v-24.576h24.576v-16.384z" />
<glyph unicode="&#xe919;" horiz-adv-x="3072" d="M2514.944 579.072h-20.48v53.248c0 16.384-6.144 26.624-18.432 26.624-10.24 0-16.384-4.096-20.48-14.336 0-2.048 0-4.096 0-8.192v-57.344h-20.48v141.312h20.48v-57.344c6.144 10.24 16.384 16.384 28.672 16.384 8.192 0 16.384-2.048 22.528-8.192 8.192-8.192 10.24-18.432 10.24-32.768v-59.392z" />
<glyph unicode="&#xe91a;" horiz-adv-x="3072" d="M2631.68 630.272c0-4.096 0-6.144 0-10.24h-63.488c0-10.24 4.096-16.384 10.24-22.528 6.144-4.096 12.288-6.144 20.48-6.144 10.24 0 18.432 2.048 26.624 4.096l4.096-14.336c-8.192-4.096-20.48-6.144-32.768-6.144-14.336 0-26.624 4.096-34.816 12.288s-12.288 20.48-12.288 34.816c0 14.336 4.096 26.624 12.288 36.864s20.48 16.384 32.768 16.384c14.336 0 24.576-6.144 30.72-16.384 4.096-6.144 6.144-16.384 6.144-28.672zM2611.2 636.416c0 6.144-2.048 12.288-4.096 16.384-4.096 6.144-10.24 8.192-16.384 8.192s-12.288-2.048-16.384-8.192c-4.096-4.096-6.144-10.24-6.144-16.384h43.008z" />
<glyph unicode="&#xe91b;" d="M542.72 311.467c-10.24 0-17.067 3.413-23.893 10.24l-136.533 136.533c-13.653 13.653-13.653 34.133 0 47.787s34.133 13.653 47.787 0l112.64-112.64 112.64 112.64c13.653 13.653 34.133 13.653 47.787 0s13.653-34.133 0-47.787l-136.533-136.533c-3.413-6.827-13.653-10.24-23.893-10.24z" />
<glyph unicode="&#xe91c;" d="M542.72 41.813c-225.28 0-409.6 184.32-409.6 409.6s184.32 409.6 409.6 409.6c225.28 0 409.6-184.32 409.6-409.6s-180.907-409.6-409.6-409.6zM542.72 792.747c-187.733 0-341.333-153.6-341.333-341.333s153.6-341.333 341.333-341.333c187.733 0 341.333 153.6 341.333 341.333s-153.6 341.333-341.333 341.333z" />
<glyph unicode="&#xe91d;" d="M570.027 284.16c-10.24 0-17.067 3.413-23.893 10.24l-136.533 136.533c-6.827 6.827-10.24 13.653-10.24 23.893s3.413 17.067 10.24 23.893l136.533 136.533c13.653 13.653 34.133 13.653 47.787 0s13.653-34.133 0-47.787l-112.64-112.64 112.64-112.64c13.653-13.653 13.653-34.133 0-47.787-6.827-6.827-17.067-10.24-23.893-10.24z" />
<glyph unicode="&#xe91e;" d="M535.893 41.813c-225.28 0-409.6 184.32-409.6 409.6s184.32 409.6 409.6 409.6c225.28 0 409.6-184.32 409.6-409.6s-180.907-409.6-409.6-409.6zM535.893 792.747c-187.733 0-341.333-153.6-341.333-341.333s153.6-341.333 341.333-341.333c187.733 0 341.333 153.6 341.333 341.333s-150.187 341.333-341.333 341.333z" />
<glyph unicode="&#xe91f;" glyph-name="arrow-right" d="M467.627 280.747c-10.24 0-17.067 3.413-23.893 10.24-13.653 13.653-13.653 34.133 0 47.787l112.64 112.64-112.64 112.64c-13.653 13.653-13.653 34.133 0 47.787s34.133 13.653 47.787 0l136.533-136.533c13.653-13.653 13.653-34.133 0-47.787l-136.533-136.533c-6.827-6.827-17.067-10.24-23.893-10.24zM498.347 41.813c-228.693 0-413.013 184.32-413.013 413.013s184.32 409.6 413.013 409.6 413.013-184.32 413.013-413.013-187.733-409.6-413.013-409.6zM498.347 796.16c-191.147 0-344.747-153.6-344.747-344.747 0-187.733 153.6-344.747 344.747-344.747 187.733 0 344.747 153.6 344.747 344.747s-157.013 344.747-344.747 344.747z" />
<glyph unicode="&#xe920;" horiz-adv-x="4096" d="M1851.392 423.424c-12.288 0-20.48 8.192-20.48 20.48s8.192 20.48 20.48 20.48h380.928c12.288 0 20.48-8.192 20.48-20.48s-8.192-20.48-20.48-20.48h-380.928z" />
<glyph unicode="&#xe921;" horiz-adv-x="4096" d="M2099.2 290.304c-6.144 0-10.24 2.048-14.336 6.144-8.192 8.192-8.192 20.48 0 28.672l135.168 135.168c8.192 8.192 20.48 8.192 28.672 0s8.192-20.48 0-28.672l-135.168-135.168c-4.096-6.144-10.24-6.144-14.336-6.144z" />
<glyph unicode="&#xe922;" horiz-adv-x="4096" d="M2234.368 423.424c-6.144 0-10.24 2.048-14.336 6.144l-135.168 135.168c-8.192 8.192-8.192 20.48 0 28.672s20.48 8.192 28.672 0l135.168-135.168c8.192-8.192 8.192-20.48 0-28.672-4.096-4.096-10.24-6.144-14.336-6.144z" />
<glyph unicode="&#xe923;" horiz-adv-x="4096" d="M2043.904 73.216v0c-204.8 0-372.736 167.936-372.736 372.736s167.936 372.736 372.736 372.736c204.8 0 372.736-167.936 372.736-372.736-2.048-206.848-167.936-372.736-372.736-372.736zM2043.904 775.68c-182.272 0-331.776-149.504-331.776-331.776s149.504-331.776 331.776-331.776c182.272 0 331.776 149.504 331.776 331.776-2.048 184.32-149.504 331.776-331.776 331.776z" />
<glyph unicode="&#xe924;" glyph-name="cloud" horiz-adv-x="1365" d="M1092.267 526.507c0 3.413 0 10.24 0 13.653 0 75.093-61.44 136.533-136.533 136.533-47.787 0-92.16-27.307-116.053-64.853-30.72 116.053-136.533 201.387-262.827 201.387-150.187 0-273.067-122.88-273.067-273.067 0-3.413 0-3.413 0-6.827-109.227-23.893-191.147-122.88-191.147-238.933 0-136.533 109.227-245.76 245.76-245.76h269.653v317.44l-61.44-61.44c-10.24-10.24-27.307-17.067-40.96-17.067s-30.72 6.827-40.96 17.067c-23.893 23.893-23.893 58.027 0 81.92l160.427 160.427c3.413 3.413 6.827 6.827 10.24 6.827 0 0 0 0 0 0 3.413 3.413 6.827 3.413 10.24 3.413 0 0 0 0 0 0 3.413 0 6.827 3.413 10.24 3.413 0 0 0 0 0 0 3.413 0 6.827 0 10.24 0s6.827 0 10.24 0c0 0 0 0 0 0 3.413 0 6.827-3.413 10.24-3.413 0 0 0 0 0 0 3.413 0 6.827-3.413 10.24-3.413 0 0 0 0 0 0 3.413-3.413 6.827-3.413 10.24-6.827l160.427-160.427c23.893-23.893 23.893-58.027 0-81.92s-58.027-23.893-81.92 0l-61.44 61.44v-317.44h269.653c136.533 0 245.76 109.227 245.76 245.76-3.413 105.813-71.68 197.973-167.253 232.107z" />
<glyph unicode="&#xe925;" glyph-name="creat-icon" d="M525.653 69.12c-197.973 0-354.987 160.427-354.987 354.987s157.013 358.4 354.987 358.4c197.973 0 354.987-160.427 354.987-354.987s-157.013-358.4-354.987-358.4zM525.653 714.24c-157.013 0-286.72-129.707-286.72-290.133s129.707-286.72 286.72-286.72 286.72 129.707 286.72 286.72c0 160.427-126.293 290.133-286.72 290.133zM491.52 550.4h68.267v-256h-68.267v256zM399.36 458.24h256v-68.267h-256v68.267z" />
<glyph unicode="&#xe926;" d="M690.176 460.288c0-90.486-73.354-163.84-163.84-163.84s-163.84 73.354-163.84 163.84c0 90.486 73.354 163.84 163.84 163.84s163.84-73.354 163.84-163.84z" />
<glyph unicode="&#xe927;" d="M514.048 376.32c-6.144 0-12.288 2.048-16.384 8.192l-53.248 67.584c-6.144 8.192-6.144 22.528 4.096 28.672 8.192 6.144 22.528 6.144 28.672-4.096l34.816-45.056 65.536 104.448c6.144 10.24 18.432 12.288 28.672 6.144s12.288-18.432 6.144-28.672l-81.92-129.024c-4.096-6.144-10.24-8.192-16.384-8.192 0 0 0 0 0 0z" />
<glyph unicode="&#xe928;" glyph-name="dreaming" horiz-adv-x="2048" d="M794.624 294.4c0 0 0 0 0 0-20.48 0-38.912 4.096-59.392 10.24-59.392 20.48-96.256 77.824-94.208 145.408-2.048 67.584 34.816 124.928 94.208 145.408 71.68 24.576 153.6 2.048 233.472-63.488 14.336-12.288 63.488-51.2 77.824-69.632l10.24-12.288-10.24-12.288c-14.336-18.432-63.488-57.344-77.824-69.632-57.344-49.152-118.784-73.728-174.080-73.728zM794.624 562.688c-16.384 0-30.72-2.048-47.104-8.192-51.2-16.384-67.584-67.584-65.536-106.496-2.048-38.912 14.336-90.112 65.536-106.496 14.336-4.096 30.72-8.192 47.104-8.192 59.392 0 112.64 34.816 149.504 63.488 20.48 16.384 45.056 36.864 59.392 51.2-14.336 14.336-38.912 34.816-59.392 51.2-36.864 28.672-90.112 63.488-149.504 63.488zM1267.712 294.4v0c-55.296 0-116.736 24.576-174.080 71.68-14.336 12.288-63.488 51.2-77.824 69.632l-10.24 12.288 10.24 12.288c14.336 18.432 63.488 57.344 77.824 69.632 79.872 63.488 161.792 86.016 233.472 63.488 59.392-20.48 96.256-77.824 94.208-145.408 2.048-67.584-34.816-124.928-94.208-145.408-20.48-6.144-40.96-8.192-59.392-8.192zM1058.816 448c14.336-14.336 38.912-34.816 59.392-51.2 34.816-28.672 90.112-63.488 149.504-63.488 0 0 0 0 0 0 16.384 0 30.72 2.048 45.056 8.192 51.2 16.384 67.584 67.584 65.536 106.496 2.048 38.912-14.336 90.112-65.536 106.496-14.336 4.096-30.72 8.192-47.104 8.192-59.392 0-112.64-34.816-149.504-63.488-18.432-16.384-43.008-36.864-57.344-51.2z" />
<glyph unicode="&#xe929;" d="M506.88 570.88h-49.493c-10.24 0-17.067 6.827-17.067 17.067s6.827 17.067 17.067 17.067h49.493c10.24 0 17.067-6.827 17.067-17.067s-6.827-17.067-17.067-17.067z" />
<glyph unicode="&#xe92a;" d="M599.040 523.093h-141.653c-10.24 0-17.067 6.827-17.067 17.067s6.827 17.067 17.067 17.067h141.653c10.24 0 17.067-6.827 17.067-17.067s-6.827-17.067-17.067-17.067z" />
<glyph unicode="&#xe92b;" d="M599.040 475.307h-141.653c-10.24 0-17.067 6.827-17.067 17.067s6.827 17.067 17.067 17.067h141.653c10.24 0 17.067-6.827 17.067-17.067s-6.827-17.067-17.067-17.067z" />
<glyph unicode="&#xe92c;" d="M716.8 244.907h-375.467c-10.24 0-17.067 6.827-17.067 17.067v223.573c0 6.827 3.413 13.653 10.24 15.36l54.613 23.893c8.533 3.413 18.773 0 22.187-8.533s0-18.773-8.533-22.187l-44.373-20.48v-196.267h341.333v196.267l-44.373 18.773c-8.533 3.413-11.947 13.653-8.533 22.187s13.653 11.947 22.187 8.533l56.32-23.893c6.827-3.413 10.24-8.533 10.24-15.36v-223.573c-1.707-8.533-8.533-15.36-18.773-15.36z" />
<glyph unicode="&#xe92d;" d="M657.067 432.64c-10.24 0-17.067 6.827-17.067 17.067v170.667h-221.867v-170.667c0-10.24-6.827-17.067-17.067-17.067s-17.067 6.827-17.067 17.067v187.733c0 10.24 6.827 17.067 17.067 17.067h254.293c10.24 0 17.067-6.827 17.067-17.067v-187.733c1.707-10.24-6.827-17.067-15.36-17.067z" />
<glyph unicode="&#xe92e;" d="M529.067 350.72c-3.413 0-6.827 1.707-8.533 3.413l-187.733 117.76c-8.533 5.12-10.24 15.36-5.12 23.893s15.36 10.24 23.893 5.12l177.493-112.64 179.2 112.64c8.533 5.12 18.773 3.413 23.893-5.12s3.413-18.773-5.12-23.893l-187.733-117.76c-3.413-1.707-6.827-3.413-10.24-3.413z" />
<glyph unicode="&#xe92f;" d="M529.067 57.173c-216.747 0-392.533 175.787-392.533 392.533s175.787 392.533 392.533 392.533c216.747 0 392.533-175.787 392.533-392.533s-175.787-392.533-392.533-392.533zM529.067 808.107c-197.973 0-358.4-160.427-358.4-358.4s160.427-358.4 358.4-358.4c197.973 0 358.4 160.427 358.4 358.4s-160.427 358.4-358.4 358.4z" />
<glyph unicode="&#xe930;" glyph-name="eye" d="M512 298.496c-167.936 0-258.048 122.88-262.144 126.976l-8.192 12.288 8.192 12.288c4.096 6.144 96.256 126.976 262.144 126.976 167.936 0 258.048-122.88 262.144-126.976l8.192-12.288-8.192-12.288c-4.096-4.096-94.208-126.976-262.144-126.976zM292.864 437.76c26.624-28.672 102.4-98.304 219.136-98.304s192.512 69.632 219.136 98.304c-26.624 28.672-102.4 98.304-219.136 98.304s-192.512-69.632-219.136-98.304zM512 361.984c-40.96 0-75.776 34.816-75.776 75.776s34.816 75.776 75.776 75.776c40.96 0 75.776-34.816 75.776-75.776s-34.816-75.776-75.776-75.776zM512 472.576c-18.432 0-34.816-16.384-34.816-34.816s16.384-34.816 34.816-34.816c18.432 0 34.816 16.384 34.816 34.816s-16.384 34.816-34.816 34.816zM680.028 634.663l28.963-28.963-364.931-364.931-28.963 28.963 364.931 364.931z" />
<glyph unicode="&#xe931;" horiz-adv-x="4096" d="M3604.48 196.096c0-45.056-36.864-81.92-81.92-81.92h-2957.312c-45.056 0-81.92 36.864-81.92 81.92v532.48c0 45.056 36.864 81.92 81.92 81.92h2957.312c45.056 0 81.92-36.864 81.92-81.92v-532.48z" />
<glyph unicode="&#xe932;" horiz-adv-x="4096" d="M1869.824 552.448h104.448v-20.48h-79.872v-63.488h73.728v-20.48h-73.728v-88.064h-24.576v192.512z" />
<glyph unicode="&#xe933;" horiz-adv-x="4096" d="M2019.328 419.328l-20.48-61.44h-26.624l65.536 192.512h30.72l65.536-192.512h-26.624l-20.48 61.44h-67.584zM2082.816 437.76l-18.432 55.296c-4.096 12.288-8.192 24.576-10.24 34.816v0c-2.048-12.288-6.144-22.528-10.24-34.816l-18.432-55.296h57.344z" />
<glyph unicode="&#xe934;" horiz-adv-x="4096" d="M2293.76 364.032c-8.192-4.096-26.624-8.192-51.2-8.192-55.296 0-96.256 34.816-96.256 98.304 0 61.44 40.96 102.4 100.352 102.4 24.576 0 38.912-6.144 45.056-8.192l-6.144-20.48c-10.24 4.096-22.528 8.192-38.912 8.192-45.056 0-75.776-28.672-75.776-79.872 0-47.104 26.624-77.824 73.728-77.824 14.336 0 30.72 4.096 40.96 8.192l8.192-22.528z" />
<glyph unicode="&#xe935;" horiz-adv-x="4096" d="M2424.832 448h-75.776v-69.632h83.968v-20.48h-108.544v192.512h104.448v-20.48h-79.872v-61.44h75.776v-20.48z" />
<glyph unicode="&#xe936;" horiz-adv-x="4096" d="M2465.792 548.352c10.24 2.048 28.672 4.096 45.056 4.096 24.576 0 40.96-4.096 53.248-14.336 10.24-8.192 16.384-18.432 16.384-34.816 0-18.432-12.288-34.816-32.768-43.008v0c18.432-4.096 38.912-20.48 38.912-49.152 0-16.384-6.144-28.672-16.384-38.912-14.336-12.288-34.816-18.432-67.584-18.432-16.384 0-30.72 2.048-38.912 2.048v192.512zM2490.368 470.528h22.528c26.624 0 40.96 14.336 40.96 32.768 0 22.528-16.384 30.72-43.008 30.72-12.288 0-18.432 0-22.528-2.048v-61.44zM2490.368 376.32c4.096 0 12.288-2.048 20.48-2.048 26.624 0 49.152 10.24 49.152 36.864s-22.528 36.864-49.152 36.864h-20.48v-71.68z" />
<glyph unicode="&#xe937;" horiz-adv-x="4096" d="M2787.328 456.192c0-67.584-40.96-102.4-90.112-102.4-51.2 0-86.016 38.912-86.016 98.304 0 61.44 38.912 102.4 90.112 102.4s86.016-40.96 86.016-98.304zM2635.776 454.144c0-40.96 22.528-77.824 61.44-77.824s61.44 36.864 61.44 79.872c0 38.912-20.48 77.824-61.44 77.824s-61.44-36.864-61.44-79.872z" />
<glyph unicode="&#xe938;" horiz-adv-x="4096" d="M2983.936 456.192c0-67.584-40.96-102.4-90.112-102.4-51.2 0-86.016 38.912-86.016 98.304 0 61.44 38.912 102.4 90.112 102.4s86.016-40.96 86.016-98.304zM2834.432 454.144c0-40.96 22.528-77.824 61.44-77.824s61.44 36.864 61.44 79.872c0 38.912-20.48 77.824-61.44 77.824s-61.44-36.864-61.44-79.872z" />
<glyph unicode="&#xe939;" horiz-adv-x="4096" d="M3016.704 552.448h24.576v-94.208c6.144 8.192 10.24 14.336 14.336 20.48l59.392 71.68h30.72l-69.632-81.92 75.776-110.592h-28.672l-63.488 94.208-18.432-20.48v-73.728h-24.576v194.56z" />
<glyph unicode="&#xe93a;" horiz-adv-x="4096" d="M1517.568 810.496h20.48v-696.32h-20.48v696.32z" />
<glyph unicode="&#xe93b;" horiz-adv-x="4096" d="M1034.24 572.928c0 16.384 10.24 18.432 16.384 18.432s43.008 0 43.008 0v67.584h-59.392c-67.584 0-81.92-49.152-81.92-81.92v-45.056h-38.912v-69.632h38.912c0-88.064 0-196.608 0-196.608h81.92c0 0 0 108.544 0 196.608h55.296l6.144 69.632h-61.44v40.96z" />
<glyph unicode="&#xe93c;" d="M808.96 523.093c0-58.439-47.374-105.813-105.813-105.813s-105.813 47.374-105.813 105.813c0 58.439 47.374 105.813 105.813 105.813s105.813-47.374 105.813-105.813z" />
<glyph unicode="&#xe93d;" d="M549.547 611.84c0-71.635-58.072-129.707-129.707-129.707s-129.707 58.072-129.707 129.707c0 71.635 58.072 129.707 129.707 129.707s129.707-58.072 129.707-129.707z" />
<glyph unicode="&#xe93e;" d="M419.84 410.453c-102.4 0-184.32-44.373-184.32-98.987v-163.84h368.64v163.84c0 54.613-81.92 98.987-184.32 98.987z" />
<glyph unicode="&#xe93f;" d="M703.147 362.667c-13.653 0-27.307 0-40.96-3.413 6.827-13.653 10.24-27.307 10.24-44.373v-163.84h180.907v129.707c0 44.373-68.267 81.92-150.187 81.92z" />
<glyph unicode="&#xe940;" horiz-adv-x="4096" d="M3604.48 196.096c0-45.056-36.864-81.92-81.92-81.92h-2957.312c-45.056 0-81.92 36.864-81.92 81.92v532.48c0 45.056 36.864 81.92 81.92 81.92h2957.312c45.056 0 81.92-36.864 81.92-81.92v-532.48z" />
<glyph unicode="&#xe941;" horiz-adv-x="4096" d="M1968.128 366.080c-10.24-4.096-32.768-10.24-59.392-10.24-28.672 0-53.248 8.192-71.68 24.576-16.384 16.384-26.624 40.96-26.624 71.68 0 57.344 38.912 100.352 104.448 100.352 22.528 0 38.912-4.096 49.152-8.192l-6.144-20.48c-10.24 4.096-22.528 8.192-43.008 8.192-47.104 0-77.824-28.672-77.824-77.824s28.672-77.824 73.728-77.824c16.384 0 26.624 2.048 32.768 6.144v57.344h-38.912v20.48h63.488v-94.208z" />
<glyph unicode="&#xe942;" horiz-adv-x="4096" d="M2170.88 456.192c0-67.584-40.96-102.4-90.112-102.4-51.2 0-86.016 38.912-86.016 98.304 0 61.44 38.912 102.4 90.112 102.4 53.248 0 86.016-40.96 86.016-98.304zM2021.376 454.144c0-40.96 22.528-77.824 61.44-77.824s61.44 36.864 61.44 79.872c0 38.912-20.48 77.824-61.44 77.824s-61.44-36.864-61.44-79.872z" />
<glyph unicode="&#xe943;" horiz-adv-x="4096" d="M2369.536 456.192c0-67.584-40.96-102.4-90.112-102.4-51.2 0-86.016 38.912-86.016 98.304 0 61.44 38.912 102.4 90.112 102.4s86.016-40.96 86.016-98.304zM2217.984 454.144c0-40.96 22.528-77.824 61.44-77.824s61.44 36.864 61.44 79.872c0 38.912-20.48 77.824-61.44 77.824-38.912 0-61.44-36.864-61.44-79.872z" />
<glyph unicode="&#xe944;" horiz-adv-x="4096" d="M2547.712 366.080c-10.24-4.096-32.768-10.24-59.392-10.24-28.672 0-53.248 8.192-71.68 24.576-16.384 16.384-26.624 40.96-26.624 71.68 0 57.344 38.912 100.352 104.448 100.352 22.528 0 38.912-4.096 49.152-8.192l-6.144-20.48c-10.24 4.096-22.528 8.192-43.008 8.192-47.104 0-77.824-28.672-77.824-77.824s28.672-77.824 73.728-77.824c16.384 0 26.624 2.048 32.768 6.144v57.344h-38.912v20.48h63.488v-94.208z" />
<glyph unicode="&#xe945;" horiz-adv-x="4096" d="M2586.624 552.448h24.576v-172.032h81.92v-20.48h-108.544v192.512z" />
<glyph unicode="&#xe946;" horiz-adv-x="4096" d="M2822.144 448h-75.776v-69.632h83.968v-20.48h-108.544v192.512h104.448v-20.48h-79.872v-61.44h75.776v-20.48z" />
<glyph unicode="&#xe947;" horiz-adv-x="4096" d="M2934.784 511.488v-67.584h65.536v-16.384h-65.536v-67.584h-18.432v67.584h-65.536v16.384h65.536v67.584h18.432z" />
<glyph unicode="&#xe948;" horiz-adv-x="4096" d="M1011.712 433.664c-10.24 8.192-34.816 24.576-34.816 34.816 0 12.288 4.096 18.432 22.528 34.816 20.48 16.384 34.816 36.864 34.816 61.44 0 28.672-12.288 53.248-32.768 65.536h30.72l26.624 26.624c0 0-86.016 0-114.688 0-59.392 0-106.496-43.008-106.496-90.112 0-49.152 32.768-88.064 88.064-88.064 4.096 0 8.192 0 10.24 0-4.096-6.144-6.144-14.336-6.144-22.528 0-14.336 8.192-20.48 16.384-30.72-6.144 0-14.336 0-20.48 0-67.584 0-114.688-47.104-114.688-90.112s57.344-71.68 122.88-71.68c75.776 0 122.88 43.008 122.88 88.064 0 36.864-6.144 55.296-45.056 81.92zM878.592 568.832c-6.144 40.96 16.384 71.68 47.104 71.68s57.344-34.816 63.488-75.776c6.144-40.96-12.288-67.584-43.008-65.536-30.72 0-61.44 28.672-67.584 69.632zM933.888 286.208c-47.104 0-79.872 28.672-79.872 65.536 0 34.816 38.912 63.488 86.016 63.488 10.24 0 20.48-2.048 30.72-4.096 24.576-18.432 45.056-28.672 51.2-49.152 0-4.096 2.048-8.192 2.048-12.288-2.048-36.864-24.576-63.488-90.112-63.488z" />
<glyph unicode="&#xe949;" horiz-adv-x="4096" d="M1148.928 652.8h-26.624v-53.248h-53.248v-26.624h53.248v-53.248h26.624v53.248h53.248v26.624h-53.248z" />
<glyph unicode="&#xe94a;" horiz-adv-x="4096" d="M1517.568 810.496h20.48v-696.32h-20.48v696.32z" />
<glyph unicode="&#xe94b;" d="M757.76 443.904c0-125.55-101.778-227.328-227.328-227.328s-227.328 101.778-227.328 227.328c0 125.55 101.778 227.328 227.328 227.328s227.328-101.778 227.328-227.328z" />
<glyph unicode="&#xe94c;" d="M530.432 198.144c-137.216 0-247.808 110.592-247.808 247.808s110.592 247.808 247.808 247.808c137.216 0 247.808-110.592 247.808-247.808s-110.592-247.808-247.808-247.808zM530.432 650.752c-112.64 0-206.848-92.16-206.848-206.848 0-112.64 92.16-206.848 206.848-206.848s206.848 94.208 206.848 206.848c0 114.688-92.16 206.848-206.848 206.848z" />
<glyph unicode="&#xe94d;" d="M512 335.36c-6.144 0-12.288 2.048-16.384 8.192l-73.728 94.208c-6.144 8.192-6.144 22.528 4.096 28.672 8.192 6.144 22.528 6.144 28.672-4.096l55.296-71.68 98.304 153.6c6.144 10.24 18.432 12.288 28.672 6.144s12.288-18.432 6.144-28.672l-114.688-176.128c-2.048-6.144-8.192-10.24-16.384-10.24 0 0 0 0 0 0z" />
<glyph unicode="&#xe94e;" d="M757.76 443.904c0-125.55-101.778-227.328-227.328-227.328s-227.328 101.778-227.328 227.328c0 125.55 101.778 227.328 227.328 227.328s227.328-101.778 227.328-227.328z" />
<glyph unicode="&#xe94f;" d="M530.432 198.144c-137.216 0-247.808 110.592-247.808 247.808s110.592 247.808 247.808 247.808c137.216 0 247.808-110.592 247.808-247.808s-112.64-247.808-247.808-247.808zM530.432 650.752c-112.64 0-206.848-92.16-206.848-206.848 0-112.64 92.16-206.848 206.848-206.848s206.848 92.16 206.848 206.848c-2.048 114.688-94.208 206.848-206.848 206.848z" />
<glyph unicode="&#xe950;" d="M530.432 300.544c-12.288 0-20.48 8.192-20.48 20.48v245.76c0 12.288 8.192 20.48 20.48 20.48s20.48-8.192 20.48-20.48v-245.76c0-10.24-10.24-20.48-20.48-20.48z" />
<glyph unicode="&#xe951;" d="M653.312 423.424h-245.76c-12.288 0-20.48 8.192-20.48 20.48s8.192 20.48 20.48 20.48h245.76c12.288 0 20.48-8.192 20.48-20.48s-10.24-20.48-20.48-20.48z" />
<glyph unicode="&#xe952;" glyph-name="ideas-icon" horiz-adv-x="956" d="M628.053 232.96h-68.267v81.92l10.24 10.24c78.507 71.68 174.080 184.32 174.080 269.653 0 146.773-122.88 266.24-273.067 266.24s-273.067-119.467-273.067-266.24c0-85.333 92.16-197.973 174.080-269.653l10.24-10.24v-81.92h-68.267v51.2c-92.16 85.333-184.32 204.8-184.32 310.613 0 184.32 153.6 334.507 341.333 334.507s341.333-150.187 341.333-334.507c0-102.4-92.16-225.28-184.32-310.613v-51.2zM471.040-26.453c-85.333 0-157.013 68.267-157.013 153.6v3.413h68.267v-3.413c0-47.787 40.96-85.333 88.747-85.333s88.747 37.547 88.747 85.333v3.413h68.267v-3.413c0-85.333-68.267-153.6-157.013-153.6zM505.173 567.467c-10.24 0-17.067 3.413-23.893 10.24l-44.373 44.373-44.373-44.373c-13.653-13.653-34.133-13.653-47.787 0s-13.653 34.133 0 47.787l68.267 68.267c13.653 13.653 34.133 13.653 47.787 0l68.267-68.267c13.653-13.653 13.653-34.133 0-47.787-3.413-6.827-13.653-10.24-23.893-10.24zM505.173 567.467c-10.24 0-17.067 3.413-23.893 10.24-13.653 13.653-13.653 34.133 0 47.787l68.267 68.267c13.653 13.653 34.133 13.653 47.787 0s13.653-34.133 0-47.787l-68.267-68.267c-3.413-6.827-13.653-10.24-23.893-10.24z" />
<glyph unicode="&#xe953;" glyph-name="info" d="M529.067 72.533c-194.56 0-354.987 160.427-354.987 354.987 0 197.973 160.427 354.987 354.987 354.987 197.973 3.413 358.4-157.013 358.4-354.987 0-194.56-160.427-354.987-358.4-354.987zM529.067 717.653c-160.427 0-286.72-129.707-286.72-286.72s129.707-286.72 286.72-286.72 286.72 129.707 286.72 286.72-126.293 286.72-286.72 286.72zM494.933 311.467c0 10.24 3.413 20.48 10.24 23.893 6.827 10.24 13.653 10.24 23.893 10.24s20.48-3.413 27.307-10.24c6.827-6.827 10.24-13.653 10.24-23.893s-3.413-20.48-10.24-23.893c-6.827-6.827-13.653-10.24-23.893-10.24s-20.48 3.413-27.307 10.24c-6.827 6.827-10.24 13.653-10.24 23.893zM556.373 383.147h-47.787l-10.24 194.56h68.267l-10.24-194.56z" />
<glyph unicode="&#xe954;" glyph-name="join-icon" horiz-adv-x="956" d="M184.32 41.813v0c-3.413 0-10.24 0-13.653 0-20.48 0-37.547 10.24-54.613 23.893l-37.547 40.96c-30.72 30.72-30.72 81.92 0 112.64l290.133 290.133c-34.133 95.573-13.653 201.387 61.44 276.48 47.787 47.787 116.053 75.093 184.32 75.093s136.533-27.307 184.32-75.093c47.787-47.787 75.093-116.053 75.093-184.32s-27.307-136.533-75.093-184.32c-47.787-47.787-116.053-75.093-184.32-75.093v0c-30.72 0-61.44 6.827-92.16 17.067l-95.573-95.573v-40.96c0-44.373-37.547-81.92-81.92-81.92h-17.067v-17.067c0-44.373-37.547-81.92-81.92-81.92h-61.44zM610.987 792.747c-51.2 0-98.987-20.48-136.533-58.027-58.027-58.027-71.68-146.773-37.547-218.453 6.827-13.653 3.413-27.307-6.827-37.547l-303.787-303.787c-3.413-3.413-3.413-13.653 0-17.067l40.96-40.96c6.827-6.827 13.653-3.413 17.067-3.413l3.413-34.133v34.133h61.44c6.827 0 13.653 6.827 13.653 13.653v47.787c0 20.48 13.653 34.133 34.133 34.133h51.2c6.827 0 13.653 6.827 13.653 13.653v54.613c0 10.24 3.413 17.067 10.24 23.893l119.467 119.467c10.24 10.24 27.307 13.653 37.547 6.827 27.307-13.653 54.613-20.48 85.333-20.48 51.2 0 98.987 20.48 136.533 54.613 37.547 37.547 58.027 85.333 58.027 136.533s-20.48 98.987-58.027 136.533c-40.96 37.547-88.747 58.027-139.947 58.027z" />
<glyph unicode="&#xe955;" glyph-name="list-icon" d="M372.053 707.413h491.52v-68.267h-491.52v68.267zM235.52 707.413h68.267v-64.853h-68.267v64.853zM235.52 488.96h68.267v-64.853h-68.267v64.853zM235.52 270.507h68.267v-64.853h-68.267v64.853zM389.12 488.96h474.453v-68.267h-474.453v68.267zM385.707 273.92h477.867v-68.267h-477.867v68.267z" />
<glyph unicode="&#xe956;" glyph-name="location-icon" d="M529.067 103.253l-27.307 34.133c-44.373 54.613-187.733 245.76-187.733 375.467 0 122.88 95.573 225.28 215.040 225.28s215.040-102.4 215.040-225.28c0-133.12-146.773-320.853-191.147-378.88l-23.893-30.72zM529.067 666.453c-81.92 0-146.773-71.68-146.773-157.013 0-78.507 75.093-204.8 146.773-300.373 75.093 95.573 146.773 221.867 146.773 300.373 0 88.747-64.853 157.013-146.773 157.013zM529.067 420.693c-54.613 0-98.987 44.373-98.987 98.987s44.373 98.987 98.987 98.987c54.613 0 98.987-44.373 98.987-98.987-3.413-54.613-44.373-98.987-98.987-98.987zM529.067 546.987c-17.067 0-30.72-13.653-30.72-30.72s13.653-30.72 30.72-30.72c17.067 0 30.72 13.653 30.72 30.72-3.413 17.067-13.653 30.72-30.72 30.72z" />
<glyph unicode="&#xe957;" glyph-name="lock-white" d="M849.92 86.187h-593.92v426.667h593.92v-426.667zM324.267 154.453h457.387v290.133h-457.387v-290.133zM737.28 444.587h-368.64v163.84c0 102.4 81.92 184.32 184.32 184.32s184.32-81.92 184.32-184.32v-163.84zM436.907 512.853h235.52v95.573c0 64.853-51.2 116.053-116.053 116.053s-116.053-51.2-116.053-116.053v-95.573zM552.96 202.24c-54.613 0-98.987 44.373-98.987 98.987s44.373 98.987 98.987 98.987c54.613 0 98.987-44.373 98.987-98.987s-44.373-98.987-98.987-98.987zM552.96 331.947c-17.067 0-30.72-13.653-30.72-30.72s13.653-30.72 30.72-30.72c17.067 0 30.72 13.653 30.72 30.72s-13.653 30.72-30.72 30.72z" />
<glyph unicode="&#xe958;" horiz-adv-x="3584" d="M-15.36 960h1157.12v-256h-1157.12v256z" />
<glyph unicode="&#xe959;" horiz-adv-x="3584" d="M-15.36 704h1157.12v-276.48h-1157.12v276.48z" />
<glyph unicode="&#xe95a;" horiz-adv-x="3584" d="M-15.36 448h1157.12v-289.28h-1157.12v289.28z" />
<glyph unicode="&#xe95b;" horiz-adv-x="3584" d="M-15.36 192h1157.12v-256h-1157.12v256z" />
<glyph unicode="&#xe95c;" horiz-adv-x="3584" d="M1331.2 107.52v670.72h99.84c46.080 0 81.92-2.56 107.52-10.24 28.16-7.68 48.64-17.92 69.12-35.84 17.92-17.92 33.28-38.4 46.080-64 10.24-25.6 17.92-51.2 17.92-79.36 0-48.64-17.92-89.6-56.32-122.88 35.84-12.8 64-33.28 84.48-64s30.72-64 30.72-104.96c0-53.76-17.92-97.28-56.32-133.12-23.040-23.040-48.64-38.4-74.24-46.080-30.72-7.68-69.12-12.8-115.2-12.8h-153.6zM1433.6 488.96h30.72c38.4 0 66.56 7.68 81.92 25.6 17.92 17.92 25.6 40.96 25.6 74.24 0 30.72-10.24 56.32-28.16 71.68s-43.52 25.6-79.36 25.6h-30.72v-197.12zM1433.6 202.24h61.44c46.080 0 79.36 10.24 99.84 28.16 23.040 20.48 33.28 43.52 33.28 74.24 0 28.16-10.24 53.76-33.28 74.24-20.48 20.48-58.88 28.16-112.64 28.16h-51.2v-204.8z" />
<glyph unicode="&#xe95d;" horiz-adv-x="3584" d="M1932.8 778.24v-576h197.12v-94.72h-296.96v670.72h99.84z" />
<glyph unicode="&#xe95e;" horiz-adv-x="3584" d="M2401.28 107.52v576h-197.12v94.72h299.52v-670.72h-102.4z" />
<glyph unicode="&#xe95f;" horiz-adv-x="3584" d="M2767.36 202.24h248.32v-94.72h-450.56l232.96 281.6c23.040 28.16 40.96 53.76 58.88 74.24 15.36 20.48 28.16 38.4 35.84 51.2 15.36 28.16 25.6 51.2 25.6 74.24 0 30.72-10.24 56.32-33.28 79.36-23.040 20.48-48.64 30.72-81.92 30.72-69.12 0-107.52-40.96-117.76-120.32h-99.84c15.36 140.8 87.040 212.48 215.040 212.48 61.44 0 112.64-20.48 153.6-58.88s61.44-87.040 61.44-143.36c0-35.84-10.24-71.68-28.16-107.52-10.24-17.92-23.040-40.96-43.52-64-17.92-25.6-43.52-53.76-71.68-89.6l-104.96-125.44z" />
<glyph unicode="&#xe960;" horiz-adv-x="3584" d="M3077.12 107.52h112.64l409.6 670.72h-499.2v-94.72h330.24z" />
<glyph unicode="&#xe961;" glyph-name="logout" d="M460.8 789.333h68.267v-327.68h-68.267v327.68zM494.933 72.533c-194.56 0-351.573 157.013-351.573 351.573 0 143.36 85.333 273.067 218.453 324.267l27.307-61.44c-109.227-44.373-177.493-146.773-177.493-262.827 0-157.013 126.293-283.307 283.307-283.307s283.307 126.293 283.307 283.307c0 116.053-68.267 218.453-177.493 262.827l27.307 64.853c133.12-54.613 218.453-180.907 218.453-324.267 0-197.973-160.427-354.987-351.573-354.987z" />
<glyph unicode="&#xe962;" glyph-name="manage" d="M805.547 468.48v-44.373l-64.853-17.067c-6.827-3.413-13.653-6.827-17.067-13.653l-17.067-40.96c-3.413-6.827-3.413-17.067 0-20.48l34.133-58.027c0 0-6.827-10.24-13.653-17.067s-17.067-13.653-17.067-13.653l-58.027 34.133c-3.413-3.413-10.24 0-13.653 0s-6.827 0-10.24-3.413l-40.96-17.067c-6.827-3.413-13.653-10.24-13.653-17.067l-17.067-64.853c0 0 0 0 0 0h-44.373c0 0 0 0 0 0l-17.067 68.267c-3.413 6.827-6.827 13.653-13.653 17.067l-40.96 17.067c-6.827 3.413-13.653 3.413-20.48 0l-58.027-34.133c0 0-10.24 6.827-17.067 13.653s-13.653 17.067-13.653 17.067l34.133 58.027c3.413 6.827 3.413 13.653 0 20.48l-17.067 40.96c-3.413 6.827-10.24 13.653-17.067 13.653l-64.853 17.067v44.373l64.853 17.067c6.827 3.413 13.653 6.827 17.067 13.653l17.067 40.96c3.413 6.827 3.413 13.653 0 20.48l-34.133 58.027c0 0 0 0 0 0s6.827 10.24 13.653 17.067c6.827 6.827 17.067 13.653 17.067 13.653l58.027-34.133c3.413-3.413 6.827-3.413 10.24-3.413s6.827 0 10.24 3.413l37.547 20.48c6.827 3.413 13.653 10.24 13.653 17.067l20.48 68.267c0 0 0 0 0 3.413h44.373c0 0 0 0 0-3.413l17.067-68.267c3.413-6.827 6.827-13.653 13.653-17.067l40.96-17.067c3.413-3.413 6.827-3.413 10.24-3.413s6.827 0 10.24 3.413l58.027 34.133c0 0 10.24-6.827 17.067-13.653s13.653-17.067 13.653-17.067l-34.133-58.027c-3.413-6.827-3.413-17.067 0-20.48l17.067-40.96c3.413-6.827 10.24-13.653 17.067-13.653l68.267-20.48zM634.88 448c0 27.307-10.24 51.2-30.72 71.68s-44.373 30.72-71.68 30.72c-27.307 0-51.2-10.24-71.68-30.72s-30.72-44.373-30.72-71.68c0-27.307 10.24-51.2 30.72-71.68s44.373-30.72 71.68-30.72c27.307 0 51.2 10.24 71.68 30.72 20.48 17.067 30.72 44.373 30.72 71.68z" />
<glyph unicode="&#xe963;" horiz-adv-x="956" d="M484.693 14.507c-225.28 0-409.6 184.32-409.6 409.6s184.32 409.6 409.6 409.6c225.28 0 409.6-184.32 409.6-409.6s-184.32-409.6-409.6-409.6zM484.693 765.44c-187.733 0-341.333-153.6-341.333-341.333s153.6-341.333 341.333-341.333c187.733 0 341.333 153.6 341.333 341.333s-153.6 341.333-341.333 341.333z" />
<glyph unicode="&#xe964;" horiz-adv-x="956" d="M453.973 246.613c-10.24 0-20.48 3.413-27.307 13.653l-122.88 153.6c-10.24 13.653-10.24 37.547 6.827 47.787 13.653 10.24 37.547 10.24 47.787-6.827l92.16-116.053 160.427 256c10.24 17.067 30.72 20.48 47.787 10.24s20.48-30.72 10.24-47.787l-187.733-296.96c-6.827-10.24-17.067-13.653-27.307-13.653 0 0 0 0 0 0z" />
<glyph unicode="&#xe965;" glyph-name="ok-only" d="M522.24 273.92c-10.24 0-20.48 3.413-27.307 13.653l-122.88 157.013c-10.24 13.653-10.24 37.547 6.827 47.787 13.653 10.24 37.547 10.24 47.787-6.827l92.16-119.467 163.84 256c10.24 17.067 30.72 20.48 47.787 10.24s20.48-30.72 10.24-47.787l-187.733-296.96c-6.827-6.827-17.067-13.653-30.72-13.653 0 0 0 0 0 0z" />
<glyph unicode="&#xe966;" glyph-name="pencil" d="M692.907 669.867l68.267-68.267-365.227-365.227-102.4-34.133 34.133 102.4 365.227 365.227zM692.907 765.44l-423.253-423.253-3.413-13.653-34.133-102.4-44.373-129.707 129.707 44.373 102.4 34.133 13.653 3.413 423.253 423.253-163.84 163.84zM642.106 619.11l67.551-67.618-48.299-48.251-67.551 67.618 48.299 48.251z" />
<glyph unicode="&#xe967;" horiz-adv-x="956" d="M464.213 188.587c-20.48 0-34.133 13.653-34.133 34.133v406.187c0 20.48 13.653 34.133 34.133 34.133s34.133-13.653 34.133-34.133v-406.187c0-20.48-13.653-34.133-34.133-34.133z" />
<glyph unicode="&#xe968;" horiz-adv-x="956" d="M669.013 389.973h-406.187c-20.48 0-34.133 13.653-34.133 34.133s13.653 34.133 34.133 34.133h406.187c20.48 0 34.133-13.653 34.133-34.133 0-17.067-17.067-34.133-34.133-34.133z" />
<glyph unicode="&#xe969;" horiz-adv-x="956" d="M464.213 14.507c-225.28 0-409.6 184.32-409.6 409.6s184.32 409.6 409.6 409.6c225.28 0 409.6-184.32 409.6-409.6s-184.32-409.6-409.6-409.6zM464.213 765.44c-187.733 0-341.333-153.6-341.333-341.333s153.6-341.333 341.333-341.333c187.733 0 341.333 153.6 341.333 341.333s-153.6 341.333-341.333 341.333z" />
<glyph unicode="&#xe96a;" d="M503.808-8.704c-260.096 0-471.040 210.944-471.040 471.040s210.944 471.040 471.040 471.040c260.096 0 471.040-210.944 471.040-471.040s-210.944-471.040-471.040-471.040zM503.808 892.416c-237.568 0-430.080-192.512-430.080-430.080s192.512-430.080 430.080-430.080c237.568 0 430.080 192.512 430.080 430.080s-192.512 430.080-430.080 430.080z" />
<glyph unicode="&#xe96b;" d="M620.544 687.616v-118.784h-233.472v118.784h233.472zM620.544 728.576h-233.472c-22.528 0-40.96-18.432-40.96-40.96v-118.784c0-22.528 18.432-40.96 40.96-40.96h233.472c22.528 0 40.96 18.432 40.96 40.96v118.784c0 22.528-18.432 40.96-40.96 40.96v0z" />
<glyph unicode="&#xe96c;" d="M729.088 296.448h-79.872c-12.288 0-20.48 8.192-20.48 20.48s8.192 20.48 20.48 20.48h59.392v192.512h-409.6v-192.512h59.392c12.288 0 20.48-8.192 20.48-20.48s-8.192-20.48-20.48-20.48h-79.872c-12.288 0-20.48 8.192-20.48 20.48v233.472c0 12.288 8.192 20.48 20.48 20.48h450.56c12.288 0 20.48-8.192 20.48-20.48v-233.472c0-10.24-8.192-20.48-20.48-20.48z" />
<glyph unicode="&#xe96d;" d="M620.544 411.136v-174.080h-233.472v174.080h233.472zM620.544 452.096h-233.472c-22.528 0-40.96-18.432-40.96-40.96v-174.080c0-22.528 18.432-40.96 40.96-40.96h233.472c22.528 0 40.96 18.432 40.96 40.96v174.080c0 22.528-18.432 40.96-40.96 40.96v0z" />
<glyph unicode="&#xe96e;" d="M368.64 472.576h-28.672c-12.288 0-20.48 8.192-20.48 20.48s8.192 20.48 20.48 20.48h28.672c12.288 0 20.48-8.192 20.48-20.48s-10.24-20.48-20.48-20.48z" />
<glyph unicode="&#xe96f;" d="M577.536 333.312h-145.408c-12.288 0-20.48 8.192-20.48 20.48s8.192 20.48 20.48 20.48h145.408c12.288 0 20.48-8.192 20.48-20.48s-10.24-20.48-20.48-20.48z" />
<glyph unicode="&#xe970;" d="M577.536 275.968h-145.408c-12.288 0-20.48 8.192-20.48 20.48s8.192 20.48 20.48 20.48h145.408c12.288 0 20.48-8.192 20.48-20.48s-10.24-20.48-20.48-20.48z" />
<glyph unicode="&#xe971;" d="M542.72 31.573c-225.28 0-409.6 184.32-409.6 409.6s184.32 409.6 409.6 409.6c225.28 0 409.6-184.32 409.6-409.6s-184.32-409.6-409.6-409.6zM542.72 782.507c-187.733 0-341.333-153.6-341.333-341.333s153.6-341.333 341.333-341.333c187.733 0 341.333 153.6 341.333 341.333s-153.6 341.333-341.333 341.333z" />
<glyph unicode="&#xe972;" d="M491.52 376.32v20.48c0 17.067 3.413 30.72 10.24 44.373s20.48 27.307 40.96 40.96c17.067 13.653 30.72 23.893 37.547 34.133 6.827 6.827 10.24 17.067 10.24 27.307s-3.413 20.48-13.653 27.307c-10.24 6.827-20.48 10.24-37.547 10.24-27.307 0-58.027-10.24-92.16-27.307l-30.72 58.027c40.96 23.893 81.92 34.133 126.293 34.133 37.547 0 64.853-10.24 88.747-27.307 20.48-17.067 34.133-40.96 34.133-71.68 0-20.48-3.413-37.547-13.653-51.2s-27.307-30.72-51.2-47.787c-17.067-13.653-27.307-23.893-34.133-27.307-3.413-6.827-6.827-13.653-6.827-27.307v-17.067h-68.267zM484.693 284.16c0 13.653 3.413 27.307 13.653 34.133 6.827 6.827 20.48 10.24 34.133 10.24s27.307-3.413 34.133-10.24c6.827-6.827 13.653-20.48 13.653-34.133s-3.413-23.893-13.653-34.133c-6.827-6.827-20.48-13.653-34.133-13.653s-27.307 3.413-34.133 10.24c-10.24 10.24-13.653 23.893-13.653 37.547z" />
<glyph unicode="&#xe973;" glyph-name="question-only" d="M505.173 369.493v20.48c0 17.067 3.413 30.72 10.24 44.373s20.48 27.307 40.96 40.96c17.067 13.653 30.72 23.893 37.547 34.133 6.827 6.827 10.24 17.067 10.24 27.307s-3.413 20.48-13.653 27.307c-10.24 6.827-20.48 10.24-37.547 10.24-27.307 0-58.027-10.24-92.16-27.307l-30.72 58.027c40.96 23.893 81.92 34.133 126.293 34.133 37.547 0 64.853-10.24 88.747-27.307 20.48-17.067 34.133-40.96 34.133-71.68 0-20.48-3.413-37.547-13.653-51.2s-27.307-30.72-51.2-47.787c-17.067-13.653-27.307-23.893-34.133-27.307-3.413-6.827-6.827-13.653-6.827-27.307v-17.067h-68.267zM498.347 277.333c0 13.653 3.413 27.307 13.653 34.133 6.827 6.827 20.48 10.24 34.133 10.24s27.307-3.413 34.133-10.24c6.827-6.827 13.653-20.48 13.653-34.133s-3.413-23.893-13.653-34.133c-6.827-6.827-20.48-13.653-34.133-13.653s-27.307 3.413-34.133 10.24c-10.24 10.24-13.653 23.893-13.653 37.547z" />
<glyph unicode="&#xe974;" d="M546.133 17.92c-225.28 0-409.6 184.32-409.6 409.6s184.32 409.6 409.6 409.6c225.28 0 409.6-184.32 409.6-409.6 0-228.693-184.32-409.6-409.6-409.6zM546.133 768.853c-187.733 0-341.333-153.6-341.333-341.333s153.6-341.333 341.333-341.333c187.733 0 341.333 153.6 341.333 341.333s-153.6 341.333-341.333 341.333z" />
<glyph unicode="&#xe975;" d="M494.933 362.667v17.067c0 17.067 3.413 30.72 10.24 44.373s20.48 27.307 40.96 40.96c17.067 13.653 30.72 23.893 37.547 34.133 6.827 6.827 10.24 17.067 10.24 27.307s-3.413 20.48-13.653 27.307c-10.24 6.827-20.48 10.24-37.547 10.24-27.307 0-58.027-10.24-92.16-27.307l-30.72 58.027c40.96 23.893 81.92 34.133 126.293 34.133 37.547 0 64.853-10.24 88.747-27.307 20.48-17.067 34.133-40.96 34.133-71.68 0-20.48-3.413-37.547-13.653-51.2s-27.307-30.72-51.2-47.787c-17.067-13.653-27.307-23.893-34.133-27.307-3.413-6.827-6.827-13.653-6.827-27.307v-17.067h-68.267zM484.693 270.507c0 13.653 3.413 27.307 13.653 34.133 6.827 6.827 20.48 10.24 34.133 10.24s27.307-3.413 34.133-10.24c6.827-6.827 13.653-20.48 13.653-34.133s-3.413-23.893-13.653-34.133c-6.827-6.827-20.48-13.653-34.133-13.653s-27.307 3.413-34.133 10.24c-10.24 10.24-13.653 20.48-13.653 37.547z" />
<glyph unicode="&#xe976;" glyph-name="quote-left" d="M34.133 287.573c0 102.4 23.893 211.627 75.093 324.267s119.467 204.8 208.213 279.893l177.493-116.053c-51.2-75.093-88.747-153.6-112.64-232.107s-37.547-160.427-37.547-252.587v-283.307h-310.613v279.893zM546.133 287.573c0 102.4 23.893 211.627 75.093 324.267s119.467 204.8 208.213 279.893l177.493-116.053c-51.2-75.093-88.747-153.6-112.64-232.107s-37.547-160.427-37.547-252.587v-283.307h-310.613v279.893z" />
<glyph unicode="&#xe977;" glyph-name="quote-right" d="M1010.347 608.427c0-102.4-23.893-211.627-75.093-324.267s-119.467-204.8-208.213-279.893l-177.493 116.053c51.2 75.093 88.747 153.6 112.64 232.107s37.547 160.427 37.547 252.587v279.893h310.613v-276.48zM498.347 608.427c0-102.4-23.893-211.627-75.093-324.267s-119.467-204.8-208.213-279.893l-177.493 116.053c51.2 75.093 88.747 153.6 112.64 232.107s37.547 160.427 37.547 252.587v279.893h310.613v-276.48z" />
<glyph unicode="&#xe978;" glyph-name="remove-email" d="M498.347 417.28c-10.24 0-17.067 3.413-23.893 10.24l-184.32 184.32c-13.653 13.653-13.653 34.133 0 47.787s34.133 13.653 47.787 0l160.427-160.427 160.427 160.427c13.653 13.653 34.133 13.653 47.787 0s13.653-34.133 0-47.787l-184.32-184.32c-6.827-6.827-17.067-10.24-23.893-10.24zM682.667 232.96c-10.24 0-17.067 3.413-23.893 10.24l-160.427 160.427-160.427-160.427c-13.653-13.653-34.133-13.653-47.787 0s-13.653 34.133 0 47.787l184.32 184.32c13.653 13.653 34.133 13.653 47.787 0l184.32-184.32c13.653-13.653 13.653-34.133 0-47.787-6.827-6.827-13.653-10.24-23.893-10.24z" />
<glyph unicode="&#xe979;" d="M498.347 17.92c-225.28 0-409.6 184.32-409.6 409.6s184.32 409.6 409.6 409.6 409.6-184.32 409.6-409.6-184.32-409.6-409.6-409.6zM498.347 768.853c-187.733 0-341.333-153.6-341.333-341.333s153.6-341.333 341.333-341.333 341.333 153.6 341.333 341.333-153.6 341.333-341.333 341.333z" />
<glyph unicode="&#xe97a;" d="M634.88 256.853c-10.24 0-17.067 3.413-23.893 10.24l-273.067 273.067c-13.653 13.653-13.653 34.133 0 47.787s34.133 13.653 47.787 0l273.067-273.067c13.653-13.653 13.653-34.133 0-47.787-6.827-6.827-17.067-10.24-23.893-10.24z" />
<glyph unicode="&#xe97b;" d="M361.813 256.853c-10.24 0-17.067 3.413-23.893 10.24-13.653 13.653-13.653 34.133 0 47.787l273.067 273.067c13.653 13.653 34.133 13.653 47.787 0s13.653-34.133 0-47.787l-273.067-273.067c-6.827-6.827-17.067-10.24-23.893-10.24z" />
<glyph unicode="&#xe97c;" horiz-adv-x="956" d="M477.867 38.4c-225.28 0-409.6 184.32-409.6 409.6s184.32 409.6 409.6 409.6c225.28 0 409.6-184.32 409.6-409.6s-184.32-409.6-409.6-409.6zM477.867 789.333c-187.733 0-341.333-153.6-341.333-341.333s153.6-341.333 341.333-341.333c187.733 0 341.333 153.6 341.333 341.333s-153.6 341.333-341.333 341.333z" />
<glyph unicode="&#xe97d;" horiz-adv-x="956" d="M477.867 311.467c-10.24 0-17.067 3.413-23.893 10.24l-136.533 136.533c-13.653 13.653-13.653 34.133 0 47.787s34.133 13.653 47.787 0l112.64-112.64 112.64 112.64c13.653 13.653 34.133 13.653 47.787 0s13.653-34.133 0-47.787l-136.533-136.533c-6.827-6.827-13.653-10.24-23.893-10.24z" />
<glyph unicode="&#xe97e;" glyph-name="search-icon" horiz-adv-x="956" d="M395.947 178.347c-184.32 0-337.92 150.187-337.92 337.92 0 184.32 150.187 337.92 337.92 337.92 184.32 0 337.92-150.187 337.92-337.92s-153.6-337.92-337.92-337.92zM395.947 785.92c-146.773 0-269.653-119.467-269.653-269.653 0-146.773 119.467-269.653 269.653-269.653 146.773 0 269.653 119.467 269.653 269.653 0 146.773-122.88 269.653-269.653 269.653zM843.093 34.987c-10.24 0-17.067 3.413-23.893 10.24l-235.52 232.107c-13.653 13.653-13.653 34.133 0 47.787s34.133 13.653 47.787 0l235.52-232.107c13.653-13.653 13.653-34.133 0-47.787-6.827-6.827-13.653-10.24-23.893-10.24z" />
<glyph unicode="&#xe97f;" d="M715.093 458.24v-30.72l-44.373-11.947c-5.12-1.707-8.533-5.12-10.24-10.24l-11.947-27.307c-1.707-5.12-1.707-10.24 0-15.36l22.187-40.96c0 0-5.12-6.827-10.24-11.947s-11.947-10.24-11.947-10.24l-40.96 23.893c-1.707 1.707-5.12 1.707-8.533 1.707-1.707 0-5.12 0-6.827-1.707l-27.307-11.947c-5.12-1.707-8.533-6.827-10.24-10.24l-11.947-44.373c0 0 0 0 0 0h-30.72c0 0 0 0 0 0l-11.947 46.080c-1.707 5.12-5.12 8.533-10.24 10.24l-27.307 11.947c-5.12 1.707-10.24 1.707-15.36 0l-40.96-22.187c0 0-6.827 5.12-11.947 10.24s-10.24 11.947-10.24 11.947l23.893 40.96c1.707 5.12 1.707 10.24 0 13.653l-11.947 27.307c-1.707 5.12-6.827 8.533-10.24 10.24l-44.373 11.947v30.72l44.373 11.947c5.12 1.707 8.533 5.12 10.24 10.24l11.947 27.307c1.707 5.12 1.707 10.24 0 15.36l-22.187 40.96c0 0 0 0 0 0s5.12 6.827 10.24 11.947c5.12 5.12 11.947 10.24 11.947 10.24l40.96-23.893c1.707-1.707 5.12-1.707 8.533-1.707 1.707 0 5.12 0 6.827 1.707l27.307 11.947c5.12 1.707 8.533 6.827 10.24 11.947l11.947 46.080c0 0 0 1.707 0 1.707h29.013c0 0 0-1.707 0-1.707l11.947-46.080c1.707-5.12 5.12-8.533 10.24-10.24l27.307-11.947c1.707-1.707 5.12-1.707 6.827-1.707 3.413 0 5.12 0 8.533 1.707l40.96 22.187c0 0 6.827-5.12 11.947-10.24s10.24-11.947 10.24-11.947l-22.187-42.667c-1.707-5.12-3.413-10.24 0-13.653l11.947-27.307c1.707-5.12 6.827-8.533 10.24-10.24l44.373-13.653zM597.333 442.88c0 18.773-6.827 35.84-20.48 49.493s-30.72 20.48-49.493 20.48c-18.773 0-35.84-6.827-49.493-20.48s-20.48-30.72-20.48-49.493c0-18.773 6.827-35.84 20.48-49.493s30.72-20.48 49.493-20.48c18.773 0 35.84 6.827 49.493 20.48s20.48 30.72 20.48 49.493z" />
<glyph unicode="&#xe980;" d="M529.067 52.053c-216.747 0-392.533 175.787-392.533 392.533s175.787 392.533 392.533 392.533c216.747 0 392.533-175.787 392.533-392.533s-177.493-392.533-392.533-392.533zM529.067 802.987c-197.973 0-358.4-160.427-358.4-358.4s160.427-358.4 358.4-358.4c197.973 0 358.4 160.427 358.4 358.4s-162.133 358.4-358.4 358.4z" />
<glyph unicode="&#xe981;" glyph-name="settings-icon" d="M535.893 62.293h-85.333l-20.48 17.067v10.24l-20.48 78.507-51.2 20.48-92.16-51.2-17.067 17.067c-3.413 0-13.653 10.24-20.48 20.48-27.307 27.307-27.307 30.72-27.307 37.547l-3.413 13.653 47.787 81.92-20.48 47.787-105.813 27.307v109.227l105.813 27.307 20.48 47.787-34.133 54.613h-78.507l75.093 58.027c6.827 6.827 13.653 17.067 20.48 23.893 27.307 23.893 34.133 27.307 37.547 27.307l13.653 3.413 81.92-47.787 47.787 20.48 23.893 88.747 17.067 20.48h81.92l17.067-17.067 3.413-10.24 20.48-81.92 47.787-20.48 95.573 54.613 23.893-20.48c0 0 13.653-10.24 20.48-20.48 23.893-23.893 27.307-30.72 27.307-37.547l3.413-13.653-47.787-81.92 20.48-47.787 105.813-27.307v-109.227l-105.813-27.307-20.48-47.787 51.2-88.747-10.24-17.067c-3.413-6.827-20.48-23.893-23.893-30.72-27.307-27.307-34.133-27.307-40.96-27.307l-13.653-3.413-81.92 47.787-47.787-20.48-27.307-88.747-13.653-17.067zM491.52 130.56h3.413l17.067 58.027c6.827 20.48 23.893 37.547 40.96 44.373l47.787 20.48c6.827 3.413 17.067 3.413 23.893 3.413 10.24 0 20.48-3.413 30.72-6.827l54.613-30.72c0 0 0 0 0 0s0 0 0 0l-27.307 54.613c-10.24 17.067-10.24 40.96 0 58.027l20.48 47.787c6.827 17.067 23.893 30.72 40.96 37.547l58.027 13.653v3.413l-58.027 13.653c-20.48 6.827-37.547 20.48-44.373 40.96l-20.48 47.787c-6.827 13.653-6.827 37.547 3.413 54.613l30.72 61.44c0 0 0 0 0 0s0 0 0 0l-54.613-30.72c-10.24-6.827-20.48-6.827-30.72-6.827-6.827 0-17.067 0-27.307 6.827l-47.787 20.48c-17.067 6.827-34.133 23.893-37.547 40.96l-17.067 61.44h-3.413l-17.067-58.027c-3.413-17.067-20.48-37.547-40.96-44.373l-47.787-20.48c-10.24-3.413-20.48-3.413-27.307-3.413-10.24 0-23.893 3.413-30.72 6.827l-54.613 30.72c0 0 0 0 0 0s0 0 0 0l30.72-51.2c10.24-17.067 10.24-40.96 0-61.44l-20.48-47.787c-6.827-17.067-23.893-34.133-44.373-37.547l-58.027-13.653v-3.413l58.027-13.653c20.48-13.653 37.547-27.307 44.373-47.787l20.48-47.787c6.827-17.067 6.827-37.547-3.413-58.027l-30.72-51.2c0 0 0 0 0-3.413 0 0 0 0 0 0l54.613 30.72c17.067 10.24 40.96 10.24 58.027 3.413l47.787-20.48c17.067-6.827 30.72-23.893 37.547-40.96l20.48-61.44zM494.933 277.333c-44.373 0-85.333 17.067-112.64 47.787-30.72 30.72-47.787 71.68-47.787 112.64 0 44.373 17.067 81.92 47.787 112.64s71.68 47.787 112.64 47.787c44.373 0 85.333-17.067 112.64-47.787 30.72-30.72 47.787-71.68 47.787-112.64s-17.067-81.92-47.787-112.64c-30.72-30.72-71.68-47.787-112.64-47.787zM494.933 529.92c-23.893 0-47.787-10.24-64.853-27.307s-27.307-40.96-27.307-64.853c0-23.893 10.24-47.787 27.307-64.853 34.133-34.133 95.573-34.133 129.707 0 17.067 17.067 27.307 40.96 27.307 64.853s-10.24 47.787-27.307 64.853c-17.067 17.067-40.96 27.307-64.853 27.307z" />
<glyph unicode="&#xe982;" horiz-adv-x="4096" d="M3121.152 134.656h-2177.024c-34.816 0-63.488 28.672-63.488 63.488v507.904c0 34.816 28.672 63.488 63.488 63.488h2177.024c34.816 0 63.488-28.672 63.488-63.488v-507.904c0-34.816-28.672-63.488-63.488-63.488zM944.128 749.056c-24.576 0-43.008-18.432-43.008-43.008v-507.904c0-24.576 18.432-43.008 43.008-43.008h2177.024c24.576 0 43.008 18.432 43.008 43.008v507.904c0 24.576-18.432 43.008-43.008 43.008h-2177.024z" />
<glyph unicode="&#xe983;" horiz-adv-x="4096" d="M1720.32 474.624l-194.56 167.936v-106.496c-118.784 0-215.040-96.256-215.040-215.040 0-20.48 2.048-38.912 8.192-57.344 24.576 90.112 108.544 155.648 206.848 155.648v-112.64l194.56 167.936z" />
<glyph unicode="&#xe984;" horiz-adv-x="4096" d="M1921.024 376.32c10.24-6.144 26.624-12.288 45.056-12.288 24.576 0 40.96 14.336 40.96 32.768s-10.24 28.672-36.864 38.912c-30.72 10.24-51.2 26.624-51.2 55.296 0 30.72 24.576 53.248 63.488 53.248 20.48 0 34.816-4.096 43.008-10.24l-6.144-20.48c-6.144 4.096-18.432 8.192-36.864 8.192-26.624 0-36.864-16.384-36.864-28.672 0-18.432 12.288-26.624 38.912-36.864 32.768-12.288 49.152-28.672 49.152-57.344 0-30.72-22.528-55.296-67.584-55.296-18.432 0-38.912 6.144-49.152 12.288l4.096 20.48z" />
<glyph unicode="&#xe985;" horiz-adv-x="4096" d="M2091.008 538.112v-81.92h94.208v81.92h24.576v-192.512h-24.576v90.112h-94.208v-90.112h-24.576v192.512h24.576z" />
<glyph unicode="&#xe986;" horiz-adv-x="4096" d="M2283.52 407.040l-20.48-61.44h-26.624l65.536 192.512h30.72l65.536-192.512h-26.624l-20.48 61.44h-67.584zM2347.008 425.472l-18.432 55.296c-4.096 12.288-6.144 24.576-10.24 34.816v0c-2.048-12.288-6.144-22.528-10.24-34.816l-18.432-55.296h57.344z" />
<glyph unicode="&#xe987;" horiz-adv-x="4096" d="M2426.88 536.064c12.288 2.048 30.72 4.096 47.104 4.096 26.624 0 43.008-4.096 55.296-16.384 10.24-8.192 14.336-22.528 14.336-36.864 0-24.576-16.384-43.008-36.864-49.152v0c14.336-6.144 24.576-18.432 28.672-38.912 6.144-26.624 10.24-45.056 14.336-53.248h-26.624c-4.096 6.144-8.192 22.528-12.288 47.104-6.144 26.624-16.384 36.864-38.912 36.864h-22.528v-83.968h-24.576v190.464zM2453.504 448h24.576c26.624 0 43.008 14.336 43.008 36.864 0 24.576-18.432 36.864-45.056 36.864-12.288 0-20.48-2.048-24.576-2.048v-71.68z" />
<glyph unicode="&#xe988;" horiz-adv-x="4096" d="M2682.88 435.712h-75.776v-69.632h83.968v-20.48h-108.544v192.512h104.448v-20.48h-79.872v-61.44h75.776v-20.48z" />
<glyph unicode="&#xe989;" glyph-name="share-icon" d="M877.714 499.2l-347.429 299.886v-190.171c-212.114 0-384-171.886-384-384 0-36.571 3.657-69.486 14.629-102.4 43.886 160.914 193.829 277.943 369.371 277.943v-201.143l347.429 299.886z" />
<glyph unicode="&#xe98a;" glyph-name="step-list" d="M238.933 683.52h491.52v-68.267h-491.52v68.267zM102.4 683.52h68.267v-64.853h-68.267v64.853zM102.4 465.067h68.267v-64.853h-68.267v64.853zM102.4 246.613h68.267v-64.853h-68.267v64.853zM238.933 468.48h238.933v-68.267h-238.933v68.267zM238.933 250.027h238.933v-68.267h-238.933v68.267zM696.32 188.587l-163.84 204.8 54.613 44.373 102.4-133.12 180.907 283.307 58.027-37.547z" />
<glyph unicode="&#xe98b;" d="M798.72 451.413c0-150.811-122.256-273.067-273.067-273.067s-273.067 122.256-273.067 273.067c0 150.811 122.256 273.067 273.067 273.067s273.067-122.256 273.067-273.067z" />
<glyph unicode="&#xe98c;" d="M501.76 311.467c-10.24 0-20.48 3.413-27.307 13.653l-88.747 112.64c-10.24 13.653-10.24 37.547 6.827 47.787 13.653 10.24 37.547 10.24 47.787-6.827l58.027-75.093 109.227 174.080c10.24 17.067 30.72 20.48 47.787 10.24s20.48-30.72 10.24-47.787l-136.533-215.040c-3.413-6.827-13.653-13.653-27.307-13.653 0 0 0 0 0 0z" />
<glyph unicode="&#xe98d;" glyph-name="suggest-icon" d="M730.453 130.56c-6.827 0-10.24 0-17.067 3.413l-174.080 92.16-174.080-92.16c-10.24-6.827-23.893-3.413-37.547 3.413-10.24 6.827-17.067 20.48-13.653 34.133l34.133 191.147-139.947 136.533c-10.24 10.24-13.653 23.893-10.24 34.133 3.413 13.653 13.653 20.48 27.307 23.893l194.56 27.307 92.16 177.493c10.24 23.893 51.2 23.893 61.44 0l85.333-174.080 194.56-27.307c13.653-3.413 23.893-10.24 27.307-23.893s0-27.307-10.24-34.133l-139.947-136.533 34.133-191.147c3.413-13.653-3.413-27.307-13.653-34.133-6.827-6.827-13.653-10.24-20.48-10.24zM542.72 297.813c6.827 0 10.24 0 17.067-3.413l126.293-68.267-23.893 143.36c-3.413 10.24 3.413 23.893 10.24 30.72l102.4 98.987-143.36 20.48c-10.24 0-20.48 10.24-27.307 17.067l-64.853 129.707-61.44-126.293c-3.413-10.24-13.653-17.067-27.307-17.067l-143.36-20.48 102.4-98.987c6.827-6.827 10.24-20.48 10.24-30.72l-23.893-143.36 126.293 68.267c10.24 0 13.653 0 20.48 0z" />
<glyph unicode="&#xe98e;" glyph-name="top-idea" d="M884.053 567.467c-61.44 0-112.64 51.2-112.64 112.64s51.2 112.64 112.64 112.64c61.44 0 112.64-51.2 112.64-112.64 0-64.853-51.2-112.64-112.64-112.64zM884.053 721.067c-23.893 0-44.373-20.48-44.373-44.373s20.48-44.373 44.373-44.373 44.373 20.48 44.373 44.373c0 23.893-20.48 44.373-44.373 44.373zM389.12 482.133c-61.44 0-112.64 51.2-112.64 112.64s51.2 112.64 112.64 112.64c61.44 0 112.64-51.2 112.64-112.64s-51.2-112.64-112.64-112.64zM389.12 635.733c-23.893 0-44.373-20.48-44.373-44.373s20.48-44.373 44.373-44.373c23.893 0 44.373 20.48 44.373 44.373s-20.48 44.373-44.373 44.373zM679.253 89.6c-61.44 0-112.64 51.2-112.64 112.64s51.2 112.64 112.64 112.64c61.44 0 112.64-51.2 112.64-112.64s-51.2-112.64-112.64-112.64zM679.253 243.2c-23.893 0-44.373-20.48-44.373-44.373s20.48-44.373 44.373-44.373 44.373 20.48 44.373 44.373-20.48 44.373-44.373 44.373zM143.36 232.96c-61.44 0-112.64 51.2-112.64 112.64s51.2 112.64 112.64 112.64c61.44 0 112.64-51.2 112.64-112.64-3.413-61.44-51.2-112.64-112.64-112.64zM143.36 386.56c-23.893 0-44.373-20.48-44.373-44.373s20.48-44.373 44.373-44.373c23.893 0 44.373 20.48 44.373 44.373s-20.48 44.373-44.373 44.373zM317.576 569.793l39.165-55.917-170.548-119.452-39.165 55.917 170.548 119.452zM836.61 640.783l61.611-29.402-179.355-375.825-61.611 29.402 179.355 375.825zM469.725 563.104l187.621-264.472-55.678-39.499-187.621 264.472 55.678 39.499z" />
<glyph unicode="&#xe98f;" glyph-name="trash" d="M723.627 567.467h-51.2v122.88h-273.067v-126.293h-98.987v-68.267h51.2v-331.093h372.053v331.093h51.2v68.267h-51.2zM471.040 622.080h136.533v-58.027h-136.533v58.027zM621.227 335.36c13.653-13.653 13.653-34.133 0-47.787-6.827-6.827-17.067-10.24-23.893-10.24-10.24 0-17.067 3.413-23.893 10.24l-34.133 34.133-34.133-34.133c-10.24-6.827-17.067-10.24-27.307-10.24s-17.067 3.413-23.893 10.24c-13.653 13.653-13.653 34.133 0 47.787l34.133 34.133-34.133 34.133c-13.653 13.653-13.653 34.133 0 47.787s34.133 13.653 47.787 0l34.133-34.133 34.133 34.133c13.653 13.653 34.133 13.653 47.787 0s13.653-34.133 0-47.787l-34.133-34.133 37.547-34.133z" />
<glyph unicode="&#xe990;" horiz-adv-x="4096" d="M3604.48 196.096c0-45.056-36.864-81.92-81.92-81.92h-2957.312c-45.056 0-81.92 36.864-81.92 81.92v532.48c0 45.056 36.864 81.92 81.92 81.92h2957.312c45.056 0 81.92-36.864 81.92-81.92v-532.48z" />
<glyph unicode="&#xe991;" horiz-adv-x="4096" d="M1886.208 529.92h-59.392v20.48h143.36v-20.48h-59.392v-172.032h-24.576v172.032z" />
<glyph unicode="&#xe992;" horiz-adv-x="4096" d="M2033.664 357.888l-49.152 192.512h26.624l22.528-98.304c6.144-24.576 10.24-49.152 14.336-67.584v0c4.096 18.432 8.192 43.008 16.384 67.584l26.624 98.304h26.624l22.528-98.304c6.144-22.528 10.24-45.056 14.336-65.536v0c4.096 20.48 10.24 43.008 16.384 67.584l24.576 98.304h24.576l-55.296-192.512h-26.624l-24.576 100.352c-6.144 24.576-10.24 43.008-12.288 63.488v0c-4.096-18.432-8.192-38.912-14.336-63.488l-26.624-100.352h-26.624z" />
<glyph unicode="&#xe993;" horiz-adv-x="4096" d="M2271.232 552.448v-192.512h-24.576v192.512h24.576z" />
<glyph unicode="&#xe994;" horiz-adv-x="4096" d="M2351.104 529.92h-59.392v20.48h143.36v-20.48h-59.392v-172.032h-24.576v172.032z" />
<glyph unicode="&#xe995;" horiz-adv-x="4096" d="M2504.704 529.92h-59.392v20.48h143.36v-20.48h-59.392v-172.032h-24.576v172.032z" />
<glyph unicode="&#xe996;" horiz-adv-x="4096" d="M2709.504 448h-75.776v-69.632h83.968v-20.48h-108.544v192.512h104.448v-20.48h-79.872v-61.44h75.776v-20.48z" />
<glyph unicode="&#xe997;" horiz-adv-x="4096" d="M2750.464 548.352c12.288 2.048 30.72 4.096 47.104 4.096 26.624 0 43.008-4.096 55.296-16.384 10.24-8.192 14.336-22.528 14.336-36.864 0-24.576-16.384-43.008-36.864-49.152v0c14.336-6.144 24.576-18.432 28.672-38.912 6.144-26.624 10.24-45.056 14.336-53.248h-26.624c-4.096 6.144-8.192 22.528-12.288 47.104-6.144 26.624-16.384 36.864-38.912 36.864h-22.528v-83.968h-24.576v190.464zM2775.040 460.288h24.576c26.624 0 43.008 14.336 43.008 36.864 0 24.576-18.432 36.864-45.056 36.864-12.288 0-20.48-2.048-24.576-2.048v-71.68z" />
<glyph unicode="&#xe998;" horiz-adv-x="4096" d="M1517.568 810.496h20.48v-696.32h-20.48v696.32z" />
<glyph unicode="&#xe999;" horiz-adv-x="4096" d="M1196.032 620.032c-16.384-10.24-34.816-16.384-53.248-20.48-14.336 16.384-36.864 26.624-61.44 26.624-45.056 0-81.92-36.864-81.92-81.92 0-6.144 0-12.288 2.048-18.432-69.632 4.096-129.024 36.864-169.984 86.016-6.144-12.288-10.24-26.624-10.24-40.96 0-28.672 14.336-53.248 36.864-69.632-14.336 0-26.624 4.096-36.864 10.24 0 0 0 0 0 0 0-40.96 28.672-73.728 65.536-81.92-6.144-2.048-14.336-2.048-22.528-2.048-6.144 0-10.24 0-16.384 2.048 10.24-32.768 40.96-57.344 77.824-57.344-28.672-22.528-63.488-34.816-102.4-34.816-6.144 0-12.288 0-20.48 2.048 36.864-22.528 79.872-36.864 126.976-36.864 151.552 0 235.52 126.976 235.52 235.52 0 4.096 0 6.144 0 10.24 16.384 12.288 30.72 26.624 40.96 43.008-14.336-6.144-30.72-10.24-47.104-12.288 18.432 6.144 30.72 22.528 36.864 40.96z" />
<glyph unicode="&#xe99a;" glyph-name="user" horiz-adv-x="956" d="M484.693 400.213c75.093 0 143.36 30.72 191.147 75.093 17.067 30.72 27.307 64.853 27.307 98.987v180.907c0 78.507-95.573 143.36-215.040 143.36s-218.453-61.44-218.453-143.36v-177.493c0-37.547 10.24-71.68 27.307-98.987 47.787-47.787 116.053-78.507 187.733-78.507zM645.12 372.907c-47.787-23.893-102.4-37.547-160.427-37.547s-112.64 13.653-160.427 37.547l-242.347-187.733v-170.667h805.547v170.667l-242.347 187.733z" />
<glyph unicode="&#xe99b;" glyph-name="user-small" d="M614.4 560.64c0-37.703-30.564-68.267-68.267-68.267s-68.267 30.564-68.267 68.267c0 37.703 30.564 68.267 68.267 68.267s68.267-30.564 68.267-68.267zM546.133 424.107c-54.613 0-95.573-23.893-95.573-51.2v-85.333h194.56v85.333c0 27.307-44.373 51.2-98.987 51.2z" />
</font>
</defs>
</svg>
