<?xml version="1.0" encoding="utf-8"?>
<!-- Generator: Adobe Illustrator 18.1.1, SVG Export Plug-In . SVG Version: 6.00 Build 0)  -->
<svg version="1.1" id="Layer_1" xmlns="http://www.w3.org/2000/svg" xmlns:xlink="http://www.w3.org/1999/xlink" x="0px" y="0px"
	 viewBox="0 0 150 45" enable-background="new 0 0 150 45" xml:space="preserve">
<g>
	<g>
		<defs>
			<path id="SVGID_1_" d="M54.2,33.8c0,4.7-3.8,8.5-8.5,8.5h-23c-4.7,0-8.5-3.8-8.5-8.5v-23c0-4.7,3.8-8.5,8.5-8.5h23
				c4.7,0,8.5,3.8,8.5,8.5V33.8z"/>
		</defs>
		<clipPath id="SVGID_2_">
			<use xlink:href="#SVGID_1_"  overflow="visible"/>
		</clipPath>
		<g clip-path="url(#SVGID_2_)">
			<rect x="11.6" y="2.3" fill="#FAA71A" width="45.2" height="10"/>
			<rect x="11.6" y="12.3" fill="#D63127" width="45.2" height="10.8"/>
			<rect x="11.6" y="22.3" fill="#3B60AD" width="45.2" height="11.3"/>
			<rect x="11.6" y="32.3" fill="#018845" width="45.2" height="10"/>
		</g>
	</g>
	<path fill="#FFFFFF" d="M70.9,6.7c3.8,0,4.2,2.5,4.2,3.6c0,1.5-1,2.5-2.2,2.9v0c0.9,0.2,3,1,3,3.6c0,2-1.3,3.9-4.6,3.9h-7.2v-14
		H70.9z M69.7,12.2c1.5,0,1.8-0.8,1.8-1.3c0-0.7-0.5-1.4-1.8-1.4h-1.6v2.7H69.7z M69.9,17.9c0.6,0,2.1,0,2.1-1.5
		c0-1.4-1.5-1.4-2.1-1.4h-1.8v2.9H69.9z"/>
	<path fill="#FFFFFF" d="M77.6,15V6.7h3.9v8.2c0,0.9,0.2,2.8,2.2,2.8c2.1,0,2.2-1.9,2.2-2.8V6.7h3.9V15c0,1.5-0.3,6.1-6.2,6.1
		C77.9,21.1,77.6,16.5,77.6,15z"/>
	<path fill="#FFFFFF" d="M102.6,20c-1.3,0.9-2.6,1-3.8,1c-4.2,0-7.2-2.9-7.2-7.4c0-4.7,3.3-7.4,7.1-7.4c1.2,0,2.7,0.3,3.8,1.1v4.1
		c-0.7-0.8-1.8-1.7-3.3-1.7c-2.2,0-3.6,1.7-3.6,4c0,2.1,1.3,3.8,3.6,3.8c1.5,0,2.6-0.8,3.3-1.5V20z"/>
	<path fill="#FFFFFF" d="M104.5,6.7h3.9v5.9l4.2-5.9h4.6l-5.3,6.8l5.5,7.2h-4.9l-4.1-6v6h-3.9V6.7z"/>
	<path fill="#FFFFFF" d="M118.5,6.7h8.4V10h-4.5v2h4.1v3.1h-4.1v2.2h4.5v3.4h-8.4V6.7z"/>
	<path fill="#FFFFFF" d="M64.2,24h3.9v10.6h4.2V38h-8.1V24z"/>
	<path fill="#FFFFFF" d="M73.8,24h3.9v14h-3.9V24z"/>
	<path fill="#FFFFFF" d="M87.6,27.9c-0.7-0.6-1.5-1.2-2.5-1.2c-1.2,0-1.5,0.7-1.5,1.2c0,0.8,1,1.1,1.7,1.2c2.1,0.5,4.4,1.4,4.4,4.7
		c0,2.8-2,4.6-5.3,4.6c-1.8,0-3.2-0.6-5.2-2.2l1.9-3c1.1,1.1,2.3,1.9,3.5,1.9c0.7,0,1.4-0.3,1.4-1.2c0-1.3-1.2-1.4-2.7-1.9
		c-1.1-0.3-3.3-1.1-3.3-4.1c0-2.3,1.6-4.2,4.9-4.2c2.2,0,3.7,1,4.3,1.4L87.6,27.9z"/>
	<path fill="#FFFFFF" d="M122.3,38h-10.8l5.8-6.8c1.3-1.5,1.6-2.1,1.6-2.9c0-0.9-0.6-1.8-1.7-1.8c-1.6,0-1.7,1.8-1.7,2.4H112
		c0.1-2,1.1-5.3,5.3-5.3c3.5,0,5.1,2.3,5.1,4.7c0,2.1-1.1,3.4-4.3,6.7h4.1V38z"/>
	<path fill="#FFFFFF" d="M129.9,27.2h-5.7V24h11.1l-6.4,14h-4.2L129.9,27.2z"/>
	<polygon fill="#FFFFFF" points="137.9,6.7 127.9,6.7 127.9,10 130.9,10 130.9,20.7 134.9,20.7 134.9,10 137.9,10 139.5,6.7 	"/>
	<polygon fill="#FFFFFF" points="100.4,24 90.3,24 90.3,27.4 93.4,27.4 93.4,38 97.3,38 97.3,27.4 100.4,27.4 101.9,24 	"/>
	<polygon fill="#FFFFFF" points="108.9,24 104.7,24 103.1,27.4 104.7,27.4 106.8,27.4 106.8,38 110.4,38 110.4,24 	"/>
</g>
</svg>
