<?xml version="1.0" encoding="utf-8"?>
<!-- Generator: Adobe Illustrator 18.1.1, SVG Export Plug-In . SVG Version: 6.00 Build 0)  -->
<svg version="1.1" id="Layer_1" xmlns="http://www.w3.org/2000/svg" xmlns:xlink="http://www.w3.org/1999/xlink" x="0px" y="0px"
	 viewBox="0 0 28 30" enable-background="new 0 0 28 30" xml:space="preserve">
<g>
	<g>
		<path fill="#E5E5E5" d="M11.6,22.9c-5.4,0-9.9-4.4-9.9-9.9c0-5.4,4.4-9.9,9.9-9.9c5.4,0,9.9,4.4,9.9,9.9
			C21.5,18.5,17,22.9,11.6,22.9z M11.6,5.1c-4.3,0-7.9,3.5-7.9,7.9c0,4.3,3.5,7.9,7.9,7.9c4.3,0,7.9-3.5,7.9-7.9
			C19.5,8.7,15.9,5.1,11.6,5.1z"/>
	</g>
	<g>
		<path fill="#E5E5E5" d="M24.7,27.1c-0.3,0-0.5-0.1-0.7-0.3L17.1,20c-0.4-0.4-0.4-1,0-1.4s1-0.4,1.4,0l6.9,6.8c0.4,0.4,0.4,1,0,1.4
			C25.2,27,25,27.1,24.7,27.1z"/>
	</g>
</g>
</svg>
