<?xml version="1.0" encoding="utf-8"?>
<!-- Generator: Adobe Illustrator 18.1.1, SVG Export Plug-In . SVG Version: 6.00 Build 0)  -->
<svg version="1.1" id="Layer_1" xmlns="http://www.w3.org/2000/svg" xmlns:xlink="http://www.w3.org/1999/xlink" x="0px" y="0px"
	 viewBox="0 0 26 26" enable-background="new 0 0 26 26" xml:space="preserve">
<g>
	<path fill="#7724F6" d="M6.6,13.5c0.1,0,0.3-0.1,0.4-0.2L19.8,0.9c0.2-0.2,0.2-0.5,0-0.8s-0.5-0.2-0.8,0L6.2,12.6
		c-0.2,0.2-0.2,0.5,0,0.8C6.3,13.5,6.4,13.5,6.6,13.5z"/>
	<path fill="#7724F6" d="M19.4,26c0.1,0,0.3-0.1,0.4-0.2c0.2-0.2,0.2-0.6,0-0.8L6.9,12.6c-0.2-0.2-0.6-0.2-0.8,0
		c-0.2,0.2-0.2,0.6,0,0.8l12.9,12.5C19.2,25.9,19.3,26,19.4,26z"/>
</g>
</svg>
