<?xml version="1.0" encoding="utf-8"?>
<!-- Generator: Adobe Illustrator 18.1.1, SVG Export Plug-In . SVG Version: 6.00 Build 0)  -->
<svg version="1.1" id="Layer_1" xmlns="http://www.w3.org/2000/svg" xmlns:xlink="http://www.w3.org/1999/xlink" x="0px" y="0px"
	 viewBox="0 0 36 22" enable-background="new 0 0 36 22" xml:space="preserve">
<polygon fill="none" stroke="#B0B0B0" stroke-width="2" stroke-linecap="round" stroke-linejoin="round" stroke-miterlimit="10" points="
	9.7,13.1 6.6,14.8 7.2,11.3 4.7,8.9 8.1,8.4 9.7,5.3 11.2,8.4 14.7,8.9 12.2,11.3 12.8,14.8 "/>
<path fill="none" stroke="#E3E3E3" stroke-width="2" stroke-linecap="round" stroke-linejoin="round" stroke-miterlimit="10" d="
	M17.4,19.9H4c-1.1,0-2-0.9-2-2V3.4c0-1.1,0.9-2,2-2h13.4V19.9z"/>
<path fill="none" stroke="#E3E3E3" stroke-width="2" stroke-linecap="round" stroke-linejoin="round" stroke-miterlimit="10" d="
	M30.8,19.9H17.4V1.4h13.4c1.1,0,2,0.9,2,2v14.5C32.8,19,31.9,19.9,30.8,19.9z"/>
<line fill="none" stroke="#B0B0B0" stroke-width="2" stroke-linecap="round" stroke-linejoin="round" stroke-miterlimit="10" x1="21.1" y1="5.9" x2="29.1" y2="5.9"/>
<line fill="none" stroke="#B0B0B0" stroke-width="2" stroke-linecap="round" stroke-linejoin="round" stroke-miterlimit="10" x1="21.1" y1="10.6" x2="29.1" y2="10.6"/>
<line fill="none" stroke="#B0B0B0" stroke-width="2" stroke-linecap="round" stroke-linejoin="round" stroke-miterlimit="10" x1="21.1" y1="15.4" x2="29.1" y2="15.4"/>
</svg>
